<svg width="700" height="659" viewBox="0 0 700 659" fill="none" xmlns="http://www.w3.org/2000/svg">
<g clip-path="url(#clip0_133_4603)">
<path d="M117.336 193.099C117.235 193.504 117.118 193.9 117.009 194.304C116.994 194.273 116.978 194.227 116.978 194.196C116.861 193.776 117.017 193.348 117.344 193.099H117.336Z" fill="#1E0F3C"/>
<path d="M207.911 155.725C212.222 160.53 212.199 168.6 207.873 173.701C205.001 177.083 200.48 178.964 195.905 178.964C193.952 178.964 191.998 178.622 190.154 177.915C184.801 175.839 180.311 170.653 178.327 164.277C178.116 164.044 178.015 163.718 178.07 163.383L178.101 163.274L178.124 163.142C178.225 162.668 178.638 162.326 179.12 162.302C179.603 162.271 180.038 162.606 180.171 163.072C181.867 169.113 185.991 174.05 190.917 175.955C196.278 178.023 202.745 176.507 206.277 172.34C209.896 168.079 209.935 161.113 206.363 157.117C204.542 155.095 201.803 153.898 198.823 153.82C196.068 153.766 193.461 154.722 191.718 156.479C191.345 156.86 190.746 156.899 190.325 156.572C189.905 156.246 189.804 155.655 190.076 155.204C198.729 140.945 207.102 126.118 215.203 111.765C215.491 112.636 215.81 113.507 216.144 114.354C209.032 126.965 201.702 139.911 194.146 152.506C195.609 151.962 197.22 151.69 198.877 151.729C202.433 151.822 205.725 153.276 207.919 155.725H207.911Z" fill="#1E0F3C"/>
<path d="M217.397 111.734C217.342 111.571 217.288 111.415 217.226 111.252C217.327 111.4 217.381 111.563 217.397 111.734Z" fill="#1E0F3C"/>
<path d="M172.024 197.593C168.507 197.593 164.989 196.373 162.336 193.978C157.325 189.437 156.227 181.406 159.83 175.691C160.141 175.201 160.787 175.054 161.278 175.365C161.768 175.676 161.916 176.321 161.604 176.811C158.577 181.608 159.535 188.621 163.744 192.431C167.954 196.24 175.027 196.513 179.509 193.037C179.969 192.68 180.63 192.765 180.98 193.224C181.338 193.683 181.252 194.343 180.793 194.693C178.28 196.645 175.152 197.609 172.024 197.609V197.593Z" fill="#1E0F3C"/>
<path d="M222.626 158.516C220.268 158.516 218.65 157.319 217.584 155.989C213.327 150.663 216.082 142.08 219.739 136.334C220.05 135.844 220.696 135.704 221.187 136.015C221.677 136.326 221.817 136.972 221.506 137.462C218.222 142.616 215.654 150.22 219.218 154.675C219.918 155.554 222.066 158.236 227.894 154.434C231.225 152.265 233.831 146.698 234.329 142.787C234.353 142.601 234.423 142.422 234.539 142.274L234.718 142.041C235.069 141.582 235.73 141.497 236.189 141.847C236.648 142.196 236.734 142.857 236.384 143.316L236.368 143.332C235.714 147.771 232.843 153.703 229.038 156.184C226.447 157.871 224.33 158.508 222.611 158.508L222.626 158.516Z" fill="#1E0F3C"/>
<path d="M178.607 142.399C176.249 142.399 174.63 141.201 173.564 139.872C169.308 134.546 172.062 125.962 175.72 120.217C176.031 119.727 176.685 119.587 177.167 119.898C177.657 120.209 177.797 120.854 177.486 121.344C174.202 126.499 171.634 134.103 175.198 138.566C175.899 139.444 178.046 142.127 183.875 138.325C187.213 136.155 189.812 130.589 190.31 126.678C190.333 126.491 190.403 126.312 190.52 126.165L190.707 125.924C191.065 125.465 191.718 125.379 192.177 125.737C192.636 126.095 192.722 126.748 192.364 127.206L192.349 127.222C191.695 131.661 188.824 137.594 185.018 140.074C182.427 141.761 180.311 142.399 178.591 142.399H178.607Z" fill="#1E0F3C"/>
<path d="M305.825 57.5737C305.911 39.9322 293.974 22.6174 277.454 16.3974C261.736 10.4806 242.726 14.7258 232.859 26.0073C231.723 19.1497 227.918 12.5799 222.167 7.67387C215.701 2.16141 207.546 -0.590927 199.803 0.108821C185.571 1.39169 173.191 14.5081 171.425 28.9618C164.958 20.1838 155.426 13.5673 144.197 10.1385C131.654 6.30548 118.659 6.9508 107.57 11.9423C96.6686 16.8561 87.432 26.2094 81.5804 38.2917C76.6159 48.5391 74.4137 59.9295 75.223 70.8611C73.3088 68.6141 70.7098 66.857 67.6673 65.7996C62.8661 64.128 57.8549 64.5167 53.8942 66.857C37.2731 76.7079 26.0212 94.7925 24.5505 114.059C23.0642 133.426 31.3125 151.698 46.1984 162.373C29.3283 166.105 14.9093 180.434 11.3766 197.352C7.6726 215.11 16.1076 235.053 31.4292 244.772C34.9231 246.988 38.7438 248.651 42.7356 249.771C44.0974 250.16 45.4747 250.486 46.8753 250.735C49.7233 251.264 52.6258 251.528 55.536 251.528C65.3251 251.528 75.1296 248.566 82.8955 242.727C86.5138 240.006 89.8832 237.222 93.0035 234.361C93.5249 233.895 94.0385 233.42 94.5443 232.938C97.9058 229.758 100.964 226.501 103.703 223.173C104.162 222.621 104.621 222.061 105.049 221.493C109.228 216.206 112.613 210.756 115.219 205.143C116.348 202.709 117.328 200.229 118.153 197.718C124.223 213.096 140.742 223.748 157.231 223.748C159.854 223.748 162.476 223.484 165.052 222.909C165.643 222.792 166.227 222.644 166.818 222.481C166.935 222.45 167.059 222.411 167.184 222.38C200.776 213.104 230.244 189.453 247.114 158.975C249.06 155.476 250.826 151.9 252.413 148.238C252.413 148.238 252.413 148.232 252.413 148.222C252.857 147.204 253.285 146.185 253.69 145.151C266.957 146.317 280.053 139.95 286.146 129.111C289.998 122.246 290.605 113.32 287.663 106.354C285.936 102.249 283.119 99.1698 279.586 97.4671C294.853 90.6562 305.739 74.3132 305.817 57.5814L305.825 57.5737ZM250.429 147.507C235.146 182.611 203.219 210.375 166.265 220.467C166.242 220.467 166.234 220.467 166.211 220.483C166.032 220.529 165.853 220.576 165.674 220.615C165.674 220.615 165.659 220.615 165.651 220.615C146.656 225.42 124.829 213.05 119.188 194.297C122.767 181.157 122.355 167.193 117.873 153.983L117.678 153.424L117.103 153.291C107.679 151.215 98.9018 143.495 95.2601 134.072C92.5989 127.206 93.1747 120.559 96.8709 115.334C101.532 108.741 111.897 108.321 118.822 111.703C126.043 115.225 130.432 123.467 129.031 130.876L128.728 132.486L130.323 132.089C137.498 130.277 143.995 125.317 148.135 118.475C151.271 113.312 152.804 107.466 152.601 101.837C160.11 112.551 174.296 118.522 187.174 115.762C198.465 113.336 207.725 104.674 211.616 93.8983C212.09 100.243 213.281 106.245 215.179 111.765C215.467 112.636 215.786 113.507 216.121 114.354C217.133 116.943 218.308 119.4 219.638 121.725C226.743 134.165 238.539 142.811 251.192 144.832C251.215 144.832 251.223 144.832 251.246 144.832L250.406 147.491L250.429 147.507ZM276.349 96.5107L273.237 97.6459L276.435 98.5089C280.551 99.613 283.866 102.684 285.741 107.155C288.426 113.546 287.873 121.764 284.325 128.077C278.372 138.674 264.591 144.856 251.542 142.756C239.512 140.836 228.276 132.579 221.475 120.683C219.879 117.892 218.525 114.906 217.397 111.742C217.343 111.579 217.288 111.423 217.226 111.26C214.495 103.376 213.242 94.4504 213.53 84.9105C213.561 84.3118 213.592 83.7054 213.6 83.0989L211.499 83.0289C211.468 83.6043 211.452 84.1719 211.429 84.7472C210.472 98.3534 199.912 110.887 186.731 113.717C172.989 116.671 157.62 108.982 151.769 96.1997L149.8 96.8995C151.481 103.532 150.22 111.011 146.345 117.402C142.781 123.288 137.365 127.673 131.311 129.632C131.996 121.787 127.25 113.499 119.733 109.829C112.029 106.066 100.435 106.649 95.1434 114.144C91.0271 119.96 90.3734 127.307 93.2914 134.841C97.1043 144.692 106.201 152.817 116.06 155.22C120.168 167.644 120.565 180.745 117.328 193.115C117.227 193.519 117.11 193.916 117.001 194.32C116.052 197.702 114.823 201.03 113.313 204.272C110.792 209.714 107.493 215.017 103.454 220.156C103.143 220.56 102.816 220.965 102.481 221.361C96.8787 228.25 89.9143 234.835 81.6349 241.063C67.8073 251.458 47.1633 252.282 32.5498 243.007C17.9285 233.739 9.8903 214.729 13.4308 197.795C16.9636 180.861 31.9428 166.641 49.0464 163.99L51.7776 163.562L49.4588 162.069C33.896 152.063 25.1652 133.73 26.6515 114.238C28.0677 95.6399 38.9227 78.1851 54.9758 68.6763C56.9834 67.4868 59.3178 66.8881 61.7534 66.8881C63.4731 66.8881 65.2472 67.1913 66.9825 67.7978C71.2 69.2672 74.4215 72.2295 75.8533 75.9459L79.4483 85.3459L77.8687 75.4017C75.97 63.4593 77.9621 50.6151 83.4791 39.2247C89.1128 27.5856 97.9836 18.5899 108.442 13.8783C119.063 9.08892 131.553 8.49024 143.59 12.1678C155.278 15.7365 165.052 22.8895 171.214 32.3594C171.214 32.6393 171.214 32.9192 171.214 33.1991C171.02 33.7822 171.02 34.4198 171.666 34.9174L173.494 36.3324L173.362 34.0233C173.347 33.8755 173.339 33.7356 173.331 33.5956C173.385 33.4946 173.456 33.3702 173.557 33.2147L173.891 32.6626L173.557 32.1184C173.479 31.994 173.401 31.8696 173.315 31.7452C173.712 17.2449 185.882 3.49094 199.998 2.21584C207.172 1.55497 214.767 4.13626 220.805 9.29107C226.844 14.4381 230.587 21.5211 231.069 28.713L231.264 31.5975L232.96 29.2572C241.722 17.2215 260.942 12.4399 276.715 18.38C292.449 24.2968 303.81 40.7875 303.724 57.5814C303.646 74.3754 292.138 90.7573 276.349 96.5263V96.5107Z" fill="#1E0F3C"/>
<path d="M276.349 96.5107L273.237 97.6458L276.435 98.5088C280.551 99.6129 283.866 102.684 285.741 107.155C288.426 113.546 287.873 121.764 284.325 128.077C278.372 138.674 264.591 144.855 251.542 142.756C239.512 140.836 228.276 132.579 221.475 120.683C219.879 117.892 218.525 114.906 217.397 111.742C217.382 111.571 217.327 111.408 217.226 111.26C214.495 103.376 213.242 94.4503 213.53 84.9104C213.561 84.3117 213.592 83.7053 213.6 83.0988L211.499 83.0289C211.468 83.6042 211.452 84.1718 211.429 84.7471C210.472 98.3533 199.912 110.887 186.731 113.717C172.989 116.671 157.62 108.982 151.769 96.1997L149.8 96.8994C151.481 103.531 150.22 111.011 146.345 117.402C142.781 123.288 137.365 127.673 131.311 129.632C131.996 121.787 127.249 113.499 119.733 109.829C112.029 106.066 100.435 106.649 95.1434 114.144C91.027 119.96 90.3734 127.307 93.2914 134.841C97.1043 144.692 106.201 152.817 116.06 155.219C120.168 167.644 120.565 180.745 117.328 193.115C117.009 193.364 116.846 193.791 116.962 194.211C116.962 194.242 116.986 194.289 116.994 194.32C116.044 197.702 114.815 201.03 113.305 204.272C110.784 209.714 107.485 215.017 103.446 220.156C103.252 220.156 103.057 220.226 102.886 220.35C102.559 220.592 102.411 220.988 102.474 221.361C96.8709 228.25 89.9065 234.835 81.6271 241.063C67.7995 251.458 47.1555 252.282 32.542 243.007C17.9207 233.739 9.88251 214.729 13.4231 197.795C16.9558 180.861 31.935 166.641 49.0386 163.99L51.7698 163.562L49.451 162.069C33.8882 152.063 25.1574 133.729 26.6437 114.238C28.0599 95.6399 38.915 78.1851 54.968 68.6763C56.9756 67.4867 59.31 66.888 61.7456 66.888C63.4653 66.888 65.2395 67.1912 66.9747 67.7977C71.1922 69.2672 74.4137 72.2294 75.8455 75.9459L79.4405 85.3458L77.8609 75.4016C75.9622 63.4592 77.9543 50.615 83.4713 39.2247C89.105 27.5855 97.9759 18.5899 108.434 13.8782C119.056 9.08884 131.545 8.49017 143.583 12.1677C155.27 15.7364 165.044 22.8894 171.207 32.3593C171.207 32.6392 171.207 32.9191 171.207 33.199C171.012 33.7822 171.012 34.4197 171.658 34.9173L173.487 36.3324L173.354 34.0232C173.339 33.8755 173.331 33.7355 173.323 33.5956C173.378 33.4945 173.448 33.3701 173.549 33.2146L173.883 32.6626L173.549 32.1183C173.471 31.9939 173.393 31.8695 173.308 31.7451C173.705 17.2448 185.875 3.49086 199.99 2.21577C207.165 1.55489 214.759 4.13618 220.798 9.29099C226.836 14.438 230.579 21.521 231.061 28.7129L231.256 31.5974L232.952 29.2571C241.714 17.2215 260.934 12.4399 276.707 18.3799C292.441 24.2967 303.802 40.7874 303.716 57.5814C303.638 74.3753 292.13 90.7572 276.341 96.5262L276.349 96.5107Z" fill="#1E0F3C"/>
<path d="M166.211 220.475C166.032 220.522 165.853 220.568 165.674 220.607C165.829 220.514 166.016 220.467 166.211 220.475Z" fill="#1E0F3C"/>
<path d="M254.826 260.975C251.324 268.991 239.146 279.549 225.583 282.636C210.441 286.08 192.769 279.907 181.603 267.265C171.479 255.805 166.242 239.477 167.176 222.364C200.768 213.089 230.236 189.437 247.107 158.959C239.263 187.882 236.181 216.922 254.499 248.62C256.662 252.368 256.771 256.52 254.826 260.967V260.975Z" fill="#1E0F3C"/>
<path d="M256.755 261.815C252.997 270.406 240.679 281.198 226.446 284.58C226.314 284.611 226.182 284.65 226.05 284.681C224.781 284.969 223.513 285.202 222.229 285.357C220.408 285.598 218.587 285.715 216.751 285.715C203.32 285.715 189.633 279.526 180.038 268.657C178.303 266.69 176.708 264.598 175.268 262.382C174.856 261.768 174.467 261.138 174.085 260.501C172.179 257.336 170.553 253.946 169.23 250.385C168.981 249.725 168.74 249.04 168.514 248.364C165.853 240.449 164.647 231.78 165.051 222.901C165.643 222.784 166.226 222.637 166.818 222.473C166.934 222.442 167.059 222.403 167.183 222.372C166.249 239.485 171.486 255.812 181.61 267.273C192.769 279.907 210.448 286.088 225.591 282.644C239.154 279.557 251.331 268.999 254.833 260.983C256.778 256.528 256.662 252.384 254.506 248.636C236.189 216.937 239.27 187.898 247.114 158.975C249.059 155.476 250.826 151.9 252.413 148.238C242.585 180.496 236.025 212.459 256.319 247.586C258.794 251.878 258.949 256.8 256.755 261.822V261.815Z" fill="#1E0F3C"/>
<path d="M103.462 220.148C103.15 220.553 102.824 220.957 102.489 221.354C102.427 220.973 102.575 220.584 102.901 220.343C103.073 220.218 103.267 220.156 103.462 220.148Z" fill="#1E0F3C"/>
<path d="M169.23 250.393C166.452 250.751 163.658 250.914 160.857 250.914C139.022 250.914 117.056 240.433 103.71 223.173C104.17 222.621 104.629 222.061 105.057 221.493C119.538 240.519 144.765 251.209 168.514 248.372C168.74 249.048 168.973 249.724 169.23 250.393Z" fill="#1E0F3C"/>
<path d="M175.269 262.382C169.425 263.75 163.425 264.427 157.387 264.427C148.236 264.427 138.976 262.872 129.973 259.762C115.18 254.669 102.419 245.899 93.019 234.353C93.5404 233.887 94.054 233.412 94.5598 232.93C103.726 244.22 116.192 252.795 130.658 257.779C145.014 262.716 160.009 263.657 174.101 260.5C174.483 261.138 174.872 261.768 175.284 262.382H175.269Z" fill="#1E0F3C"/>
<path d="M46.8751 250.735C28.3631 255.703 12.5591 267.7 4.5676 282.854C4.38862 283.211 4.01512 283.413 3.64161 283.413C3.47042 283.413 3.30701 283.374 3.15138 283.289C2.63003 283.025 2.43549 282.387 2.70784 281.874C10.4348 267.21 25.2272 255.408 42.7276 249.771C44.0894 250.16 45.4667 250.486 46.8673 250.735H46.8751Z" fill="#1E0F3C"/>
<path d="M406.485 343.833C403.801 344.198 400.937 344.082 398.175 343.973C392.984 343.771 387.623 343.553 382.939 346.414C379.274 348.653 376.114 351.763 373.056 354.772C368.527 359.243 363.827 363.861 357.416 365.688C353.463 366.816 349.362 367.375 345.245 367.375C338.499 367.375 331.737 365.875 325.652 362.928C325.807 362.796 325.963 362.671 326.127 362.547C326.344 362.376 326.477 362.135 326.508 361.878C326.508 361.878 326.508 361.863 326.508 361.855C326.593 361.645 326.609 361.404 326.531 361.163C326.508 361.109 326.5 361.062 326.477 361C335.814 365.54 346.833 366.512 356.824 363.674C362.73 361.987 367.018 357.765 371.578 353.279C374.721 350.185 377.966 346.982 381.841 344.618C387.063 341.43 392.751 341.656 398.252 341.881C401.054 341.982 403.692 342.099 406.189 341.757C406.765 341.679 407.294 342.076 407.372 342.651C407.45 343.226 407.053 343.755 406.477 343.833H406.485Z" fill="#1E0F3C"/>
<path d="M397.241 401.935C390.915 406.126 383.242 408.388 375.64 408.388C374.013 408.388 372.403 408.287 370.807 408.077C365.711 407.416 361.602 404.439 357.633 401.554C354.42 399.214 351.089 396.804 347.3 395.715C339.542 393.491 332.196 396.493 325.092 399.4C321.637 400.816 318.073 402.269 314.548 403.07C314.711 402.853 314.789 402.612 314.836 402.487C314.914 402.254 314.914 402.013 314.836 401.78C314.735 401.492 314.626 401.196 314.532 400.917C317.73 400.139 320.929 398.841 324.306 397.457C331.737 394.417 339.425 391.276 347.891 393.694C352.031 394.883 355.509 397.41 358.878 399.851C362.808 402.713 366.512 405.411 371.08 405.994C379.717 407.113 388.829 404.991 396.081 400.178C396.572 399.859 397.217 399.991 397.537 400.473C397.856 400.955 397.723 401.609 397.249 401.927L397.241 401.935Z" fill="#1E0F3C"/>
<path d="M158.694 462.269C158.383 463.085 158.11 463.925 157.869 464.772C151.061 466.949 144.151 468.854 137.178 470.472C136.501 470.635 135.825 470.783 135.14 470.938C131.584 471.739 128.004 472.47 124.409 473.123C123.717 473.247 123.024 473.364 122.332 473.488C118.169 474.219 113.99 474.849 109.788 475.385C109.088 475.479 108.387 475.556 107.679 475.642C102.396 476.272 97.0731 476.746 91.7428 477.057C91.0269 477.096 90.3188 477.142 89.6029 477.174C88.498 477.228 87.3852 477.282 86.2803 477.329C82.623 477.477 78.9658 477.547 75.3163 477.547C73.8689 477.547 72.4216 477.531 70.982 477.516C70.2661 477.5 69.5658 477.485 68.8577 477.477C63.4574 477.352 58.0805 477.065 52.7191 476.614C52.011 476.559 51.3106 476.505 50.6103 476.435C44.1906 475.852 37.7943 475.043 31.4447 474.009C30.7521 473.892 30.0596 473.776 29.3671 473.651C23.6477 472.672 17.9595 471.506 12.3258 470.161L11.8355 470.129C11.2597 470.098 10.824 469.601 10.8551 469.018C10.894 468.434 11.3764 467.999 11.9678 468.038L12.5514 468.069C12.6137 468.069 12.6759 468.085 12.7304 468.1C36.6349 473.83 61.3564 476.233 86.2103 475.245C102.886 474.584 119.359 472.4 135.443 468.73C135.684 468.683 135.887 468.629 136.112 468.567H136.144C143.746 466.817 151.255 464.734 158.647 462.323C158.679 462.292 158.686 462.284 158.71 462.269H158.694Z" fill="#1E0F3C"/>
<path d="M326.531 361.855C326.531 361.855 326.531 361.871 326.531 361.878C326.5 362.135 326.36 362.376 326.15 362.547C325.986 362.671 325.831 362.796 325.675 362.928C314.657 371.776 310.05 387.528 314.532 400.924C314.626 401.212 314.727 401.507 314.836 401.787C314.921 402.021 314.921 402.262 314.836 402.495C314.797 402.611 314.711 402.86 314.548 403.078C314.462 403.187 314.361 403.303 314.229 403.389C303.187 417.78 285.36 425.936 266.381 425.936C261.712 425.936 256.981 425.447 252.258 424.428C229.769 419.592 209.981 402.681 201.671 381.254C196.216 379.846 191.267 377.008 187.119 373.23C185.898 372.11 184.738 370.913 183.672 369.646C176.443 361.116 172.763 349.446 175.019 338.483C169.261 335.98 164.654 330.786 162.273 324.084C159.674 316.729 160.219 308.993 163.767 302.866C164.063 302.361 164.701 302.198 165.199 302.485C165.705 302.773 165.876 303.418 165.58 303.916C162.382 309.428 161.884 316.706 164.242 323.377C166.522 329.822 171.027 334.736 176.591 336.866C177.089 337.053 177.362 337.582 177.245 338.087C173.128 355.518 185.244 375.174 202.682 379.341C203.017 379.426 203.297 379.66 203.414 379.994C211.359 401.018 230.695 417.648 252.678 422.375C275.866 427.367 299.397 419.359 312.641 401.966C307.677 387.676 312.54 370.75 324.352 361.272C320.485 349.967 311.085 340.824 299.109 336.75C287.328 332.746 273.882 334.091 263.128 340.334C262.755 340.559 262.28 340.52 261.945 340.248C261.603 339.968 261.471 339.525 261.603 339.105C263.891 332.069 262.56 323.975 258.218 318.494C253.752 312.842 246.25 309.879 239.115 310.929C238.765 310.983 238.399 310.851 238.173 310.579C237.932 310.307 237.862 309.926 237.963 309.584C239.379 304.981 238.555 299.655 235.691 294.967C232.687 290.045 228.019 286.702 222.875 285.785C222.587 285.738 222.354 285.575 222.214 285.349C223.49 285.186 224.766 284.961 226.034 284.673C226.167 284.642 226.299 284.611 226.431 284.572C230.874 286.197 234.788 289.462 237.481 293.871C240.344 298.567 241.371 303.877 240.36 308.682C247.737 308.13 255.253 311.364 259.868 317.18C264.14 322.584 265.758 330.265 264.249 337.333C275.127 331.805 288.223 330.817 299.794 334.751C312.525 339.074 322.493 348.879 326.484 360.984C326.508 361.039 326.516 361.085 326.539 361.147C326.617 361.389 326.601 361.63 326.516 361.839L326.531 361.855Z" fill="#1E0F3C"/>
<path d="M1.05038 372.826C0.661308 372.826 0.2878 372.608 0.108828 372.235C-0.147959 371.714 0.0699207 371.084 0.591275 370.835C16.4731 363.107 30.0906 349.516 38.9303 332.567C39.1948 332.054 39.8329 331.852 40.3465 332.124C40.8601 332.388 41.0624 333.026 40.79 333.539C31.748 350.885 17.796 364.802 1.50948 372.725C1.36163 372.795 1.20601 372.833 1.05038 372.833V372.826Z" fill="#1E0F3C"/>
<path d="M100.084 342.892C99.7497 342.892 99.4307 342.806 99.135 342.612C97.6876 341.671 98.4035 339.23 99.0649 337.473C99.8898 335.272 101.314 332.582 103.072 329.884C104.831 327.194 106.722 324.807 108.403 323.159C109.749 321.845 111.694 320.212 113.141 321.153C114.589 322.094 113.873 324.535 113.212 326.292C112.387 328.493 110.963 331.183 109.204 333.881C107.446 336.571 105.555 338.958 103.874 340.606C102.808 341.648 101.36 342.892 100.084 342.892ZM111.896 323.066C110.838 323.548 108.084 326.044 104.823 331.027C101.571 336.011 100.388 339.541 100.38 340.699C101.438 340.217 104.193 337.722 107.446 332.738C110.698 327.754 111.881 324.224 111.889 323.066H111.896Z" fill="#1E0F3C"/>
<path d="M79.3858 284.945C75.9931 284.945 70.1026 279.176 69.34 278.414C68.4451 277.52 60.6637 269.59 63.3716 266.884C64.3288 265.928 65.9862 266.169 68.4373 267.623C70.406 268.797 72.7093 270.647 74.9037 272.847C77.1058 275.048 78.9578 277.341 80.1328 279.308C81.5879 281.757 81.8369 283.413 80.8798 284.37C80.483 284.766 79.9694 284.937 79.3858 284.937V284.945ZM64.889 268.4C64.8579 269.364 66.671 272.777 70.8185 276.921C74.9659 281.065 78.3197 282.846 79.3235 282.846H79.3547C79.3858 281.882 77.5727 278.469 73.4252 274.325C69.3089 270.212 65.9239 268.4 64.9201 268.4H64.889Z" fill="#1E0F3C"/>
<path d="M60.7024 364.778C59.3796 364.778 58.3602 363.464 57.5743 360.774C56.9362 358.574 56.5238 355.651 56.4226 352.541C56.3837 351.273 56.1192 340.171 59.9398 340.046C61.3172 340.015 62.3365 341.314 63.1302 344.05C63.7683 346.251 64.1807 349.174 64.2819 352.284C64.3208 353.551 64.5853 364.654 60.7647 364.778C60.7413 364.778 60.718 364.778 60.6946 364.778H60.7024ZM60.0177 342.2C59.3329 342.884 58.3291 346.608 58.5236 352.478C58.7182 358.341 59.971 361.995 60.7024 362.633C61.3872 361.948 62.391 358.224 62.1965 352.354C62.0019 346.492 60.7491 342.837 60.0177 342.2Z" fill="#1E0F3C"/>
<path d="M132.245 422.85C131.661 422.85 131.148 422.679 130.751 422.282C128.043 419.576 135.825 411.646 136.719 410.752C138.922 408.551 141.217 406.701 143.186 405.527C145.645 404.073 147.294 403.832 148.251 404.781C150.959 407.486 143.178 415.417 142.283 416.311C141.521 417.073 135.63 422.85 132.237 422.85H132.245ZM132.276 420.758C132.276 420.758 132.292 420.758 132.307 420.758C133.311 420.758 136.696 418.939 140.812 414.834C144.929 410.728 146.781 407.276 146.742 406.312C146.734 406.312 146.726 406.312 146.711 406.312C145.707 406.312 142.322 408.132 138.206 412.237C134.089 416.342 132.237 419.794 132.276 420.758Z" fill="#1E0F3C"/>
<path d="M69.4724 434.295C65.8852 434.295 60.1036 431.41 59.2632 430.975C56.493 429.56 54.0185 427.942 52.2989 426.426C50.159 424.545 49.4197 423.036 50.0345 421.839C50.6492 420.634 52.3066 420.354 55.0846 420.991C57.3179 421.497 60.0803 422.562 62.8504 423.977C63.9787 424.552 73.8222 429.715 72.0792 433.113C71.6434 433.968 70.6785 434.295 69.4724 434.295ZM51.9487 422.819C52.2133 423.752 54.9834 426.434 60.2125 429.109C65.4417 431.783 69.239 432.46 70.1572 432.125C69.8926 431.192 67.1147 428.51 61.8856 425.835C56.6564 423.161 52.8513 422.484 51.9409 422.819H51.9487Z" fill="#1E0F3C"/>
<path d="M152.943 378.587C152.243 378.587 151.418 378.478 150.453 378.26C148.22 377.755 145.458 376.69 142.687 375.275C141.559 374.699 131.716 369.545 133.459 366.139C134.073 364.934 135.731 364.654 138.509 365.292C140.742 365.797 143.505 366.862 146.275 368.277C149.045 369.692 151.519 371.309 153.239 372.826C155.379 374.715 156.118 376.216 155.503 377.413C155.099 378.198 154.258 378.587 152.943 378.587ZM135.381 367.111C135.645 368.044 138.423 370.726 143.652 373.401C148.881 376.076 152.687 376.752 153.597 376.418C153.332 375.485 150.562 372.802 145.333 370.128C140.104 367.453 136.299 366.769 135.389 367.103L135.381 367.111Z" fill="#1E0F3C"/>
<path d="M224.921 348.972C224.221 348.972 223.396 348.863 222.431 348.645C220.198 348.14 217.436 347.075 214.665 345.66C213.537 345.084 203.694 339.93 205.437 336.524C206.051 335.319 207.709 335.039 210.487 335.677C212.72 336.182 215.483 337.247 218.253 338.662C221.023 340.077 223.497 341.695 225.217 343.211C227.357 345.1 228.096 346.601 227.481 347.798C227.077 348.583 226.236 348.972 224.921 348.972ZM207.359 337.504C207.623 338.437 210.401 341.119 215.63 343.794C220.859 346.468 224.665 347.145 225.575 346.81C225.31 345.877 222.532 343.195 217.311 340.521C212.082 337.846 208.277 337.169 207.367 337.504H207.359Z" fill="#1E0F3C"/>
<path d="M285.749 383.703C282.309 383.703 279.29 374.07 278.948 372.911C278.053 369.933 277.5 367.033 277.399 364.747C277.275 361.902 277.843 360.323 279.142 359.935C282.792 358.838 286.122 369.428 286.488 370.641C287.383 373.619 287.935 376.519 288.036 378.805C288.161 381.65 287.593 383.229 286.293 383.617C286.114 383.672 285.935 383.695 285.756 383.695L285.749 383.703ZM279.757 361.995C279.267 362.827 279.251 366.691 280.947 372.312C282.644 377.934 284.791 381.137 285.663 381.565C286.153 380.733 286.169 376.869 284.472 371.247C282.776 365.626 280.628 362.423 279.757 361.995Z" fill="#1E0F3C"/>
<path d="M227.217 387.683C226.19 387.683 225.365 387.396 224.922 386.657C224.229 385.499 224.875 383.951 226.89 381.938C228.509 380.321 230.882 378.548 233.559 376.962C234.648 376.316 244.258 370.734 246.211 374.023C248.165 377.312 238.664 383.073 237.574 383.718C236.726 384.216 230.765 387.683 227.209 387.683H227.217ZM226.781 385.553C227.707 385.825 231.466 384.908 236.516 381.914C241.566 378.921 244.165 376.06 244.375 375.119C243.441 374.847 239.691 375.764 234.641 378.758C229.59 381.751 226.991 384.605 226.789 385.553H226.781Z" fill="#1E0F3C"/>
<path d="M160.523 463.389C157.254 472.33 158.795 483.168 164.771 493.245C164.919 493.501 164.95 493.812 164.872 494.092C164.779 494.38 164.577 494.613 164.312 494.737C143.116 504.588 120.153 510.233 96.9485 511.648C96.4427 511.687 95.937 511.71 95.4312 511.741C92.0151 511.92 88.6069 512.013 85.1908 512.013C75.6119 512.013 66.033 511.298 56.563 509.86C56.314 509.829 56.065 509.79 55.8238 509.751C41.2959 507.504 27.0326 503.57 13.3996 497.941C12.886 497.731 12.388 497.521 11.8822 497.303C9.95239 496.487 8.03038 495.639 6.12393 494.753C5.60258 494.512 5.37692 493.89 5.61814 493.361C5.85937 492.84 6.48188 492.607 7.01101 492.848C8.84743 493.703 10.6994 494.527 12.5669 495.305C13.2128 495.585 13.8587 495.857 14.5123 496.113C20.8308 498.71 27.2816 500.934 33.8335 502.792C34.5027 502.987 35.1797 503.173 35.8489 503.352C42.3386 505.117 48.9139 506.524 55.5514 507.574C56.244 507.683 56.9365 507.791 57.6291 507.885C63.2317 508.717 68.8654 509.284 74.5225 509.603C75.2228 509.642 75.931 509.681 76.6313 509.704C82.872 509.992 89.1204 509.961 95.3611 509.626C96.0848 509.595 96.8007 509.549 97.5244 509.502C103.438 509.121 109.321 508.46 115.173 507.527C115.888 507.411 116.597 507.294 117.312 507.169C122.254 506.322 127.156 505.272 132.004 504.028C132.696 503.857 133.389 503.671 134.081 503.492C139.451 502.046 144.758 500.359 149.979 498.423C150.648 498.182 151.325 497.933 151.994 497.668C155.511 496.323 158.99 494.869 162.421 493.299C157.029 483.736 155.441 473.55 157.9 464.757C158.142 463.91 158.414 463.07 158.725 462.253C159.192 461.787 159.309 461.616 159.433 461.429C159.488 461.344 159.55 461.266 159.628 461.204C185.493 439.62 195.632 401.197 183.75 369.832C183.719 369.77 183.711 369.7 183.696 369.638C184.77 370.913 185.921 372.103 187.143 373.222C196.979 404.532 186.411 441.51 161.091 462.72C160.958 462.907 160.803 463.101 160.546 463.381L160.523 463.389Z" fill="#1E0F3C"/>
<path d="M158.702 462.261C159.169 461.795 159.285 461.624 159.41 461.437C159.464 461.351 159.526 461.274 159.604 461.212L158.702 462.261Z" fill="#1E0F3C"/>
<path d="M151.963 497.676C151.294 497.941 150.617 498.189 149.948 498.43L148.236 485.571C148.158 484.995 148.562 484.474 149.138 484.397C149.714 484.319 150.243 484.723 150.321 485.298L151.963 497.676Z" fill="#1E0F3C"/>
<path d="M136.097 468.559C135.863 468.613 135.661 468.668 135.428 468.722C135.544 468.637 135.692 468.582 135.848 468.559C135.934 468.543 136.019 468.543 136.097 468.559Z" fill="#1E0F3C"/>
<path d="M138.206 484.645C138.159 484.645 138.104 484.645 138.05 484.645C137.536 484.645 137.093 484.272 137.015 483.751L135.14 470.938C135.824 470.782 136.501 470.627 137.178 470.471L139.085 483.448C139.17 484.023 138.774 484.56 138.198 484.645H138.206Z" fill="#1E0F3C"/>
<path d="M134.05 503.5C133.358 503.678 132.665 503.865 131.972 504.036L131.576 491.822C131.552 491.246 132.011 490.756 132.587 490.749H132.618C133.186 490.749 133.645 491.2 133.669 491.759L134.05 503.5Z" fill="#1E0F3C"/>
<path d="M125.413 486.099C125.452 486.675 125.024 487.172 124.448 487.227H124.362C123.818 487.227 123.359 486.807 123.32 486.263L122.332 473.496C123.024 473.379 123.717 473.255 124.409 473.131L125.413 486.099Z" fill="#1E0F3C"/>
<path d="M118.363 495.888L117.281 507.177C116.566 507.302 115.857 507.418 115.142 507.535L116.278 495.686C116.332 495.11 116.861 494.691 117.422 494.745C117.997 494.799 118.418 495.32 118.363 495.888Z" fill="#1E0F3C"/>
<path d="M109.788 475.385L109.391 486.846C109.368 487.413 108.901 487.856 108.34 487.856H108.309C107.726 487.833 107.274 487.343 107.298 486.776L107.687 475.642C108.395 475.556 109.095 475.471 109.796 475.385H109.788Z" fill="#1E0F3C"/>
<path d="M96.9485 511.648C96.754 511.889 96.4661 512.029 96.1548 512.029C96.0848 512.029 96.0225 512.029 95.9525 512.013C95.7502 511.974 95.5712 511.881 95.4312 511.741C95.9369 511.71 96.4427 511.687 96.9485 511.648Z" fill="#1E0F3C"/>
<path d="M100.077 495.958L97.4855 509.517C96.7618 509.564 96.0459 509.611 95.3223 509.642L98.0068 495.569C98.1158 494.994 98.6683 494.628 99.2363 494.729C99.8044 494.838 100.178 495.39 100.069 495.958H100.077Z" fill="#1E0F3C"/>
<path d="M91.7427 477.057L89.5795 491.588C89.5017 492.109 89.0581 492.482 88.5446 492.482C88.4979 492.482 88.4434 492.482 88.3889 492.482C87.8131 492.397 87.4162 491.86 87.5018 491.285L89.6028 477.181C90.3187 477.15 91.0268 477.104 91.7427 477.065V477.057Z" fill="#1E0F3C"/>
<path d="M78.5687 497.435L76.6 509.712C75.8996 509.681 75.1915 509.65 74.4912 509.611L76.491 497.101C76.5844 496.525 77.1213 496.144 77.6894 496.238C78.2652 496.331 78.6543 496.868 78.5609 497.443L78.5687 497.435Z" fill="#1E0F3C"/>
<path d="M70.9741 477.516L68.842 489.575C68.7486 490.088 68.3129 490.438 67.8149 490.438C67.7526 490.438 67.6904 490.438 67.6359 490.422C67.0601 490.321 66.6788 489.777 66.7799 489.209L68.8498 477.469C69.5579 477.485 70.266 477.5 70.9741 477.508V477.516Z" fill="#1E0F3C"/>
<path d="M56.5551 509.852C56.4851 509.875 56.4073 509.883 56.3295 509.883C56.2516 509.883 56.1816 509.883 56.1038 509.86C56.0026 509.836 55.9015 509.797 55.8081 509.743C56.0493 509.782 56.2983 509.828 56.5473 509.852H56.5551Z" fill="#1E0F3C"/>
<path d="M60.8036 493.229L57.6055 507.892C56.9129 507.791 56.2204 507.69 55.5278 507.581L58.7493 492.786C58.8738 492.218 59.4341 491.86 60.0021 491.993C60.5702 492.109 60.9281 492.669 60.7958 493.237L60.8036 493.229Z" fill="#1E0F3C"/>
<path d="M52.7111 476.606L49.9954 488.564C49.8942 489.054 49.4585 489.38 48.976 489.38C48.8982 489.38 48.8204 489.38 48.7426 489.357C48.1746 489.225 47.8166 488.665 47.9489 488.097L50.5946 476.419C51.3027 476.489 52.003 476.544 52.7033 476.598L52.7111 476.606Z" fill="#1E0F3C"/>
<path d="M39.5372 489.551L35.8254 503.352C35.1562 503.173 34.4793 502.986 33.8101 502.792L37.514 489.007C37.6619 488.447 38.2377 488.113 38.7902 488.268C39.3504 488.416 39.685 488.991 39.5294 489.551H39.5372Z" fill="#1E0F3C"/>
<path d="M31.437 474.001L28.8458 483.572C28.7213 484.039 28.2933 484.35 27.8342 484.35C27.7408 484.35 27.6552 484.334 27.5618 484.319C27.0016 484.163 26.6748 483.596 26.8226 483.036L29.3594 473.651C30.0519 473.776 30.7444 473.892 31.437 474.009V474.001Z" fill="#1E0F3C"/>
<path d="M13.3841 497.933C13.2284 498.026 13.0573 498.073 12.8705 498.073C12.7149 498.073 12.5592 498.042 12.4114 497.972C12.1313 497.832 11.9367 497.591 11.8667 497.303C12.3725 497.521 12.8705 497.731 13.3841 497.941V497.933Z" fill="#1E0F3C"/>
<path d="M20.5505 483.743L14.4888 496.121C13.8352 495.865 13.1893 495.592 12.5435 495.313L18.6596 482.826C18.9086 482.305 19.5389 482.095 20.0681 482.344C20.5894 482.593 20.7995 483.222 20.5505 483.751V483.743Z" fill="#1E0F3C"/>
<path d="M490.991 369.832C486.673 364.18 479.436 360.549 471.141 359.873C463.819 359.282 462.247 359.569 455.267 361.949C453.711 359.616 452.256 357.229 450.847 354.928C448.085 350.395 445.47 346.111 442.124 342.208C436.14 335.242 428.748 330.996 421.317 330.266C414.181 329.566 407.186 332.45 403.108 337.426C402.579 338.072 402.097 338.748 401.677 339.463C401.295 340.093 400.968 340.738 400.68 341.423C393.249 359.111 391.763 379.193 395.84 398.017C395.988 398.709 396.152 399.408 396.315 400.1C398.976 411.242 403.606 421.886 410.127 431.255C410.322 431.542 410.648 431.706 410.991 431.706H411.014C427.2 431.426 443.19 427.647 457.267 420.774C471.608 413.777 483.693 403.677 492.19 391.587C496.47 385.491 495.964 376.348 490.991 369.84V369.832ZM490.47 390.382C482.175 402.192 470.379 412.043 456.349 418.892C442.708 425.548 427.231 429.241 411.543 429.591C405.233 420.385 400.766 409.959 398.229 399.051C398.12 398.576 398.004 398.102 397.91 397.62C393.903 379.201 395.35 359.538 402.626 342.239C402.976 341.415 403.404 340.622 403.902 339.875C404.291 339.292 404.727 338.732 405.201 338.212C408.501 334.526 413.699 332.256 419.185 332.256C419.831 332.256 420.469 332.287 421.122 332.349C428.017 333.033 434.911 337.014 440.545 343.569C443.782 347.339 446.35 351.553 449.073 356.016C450.435 358.255 451.835 360.557 453.353 362.835C447.237 365.222 435.767 364.265 432.639 359.904C432.304 359.437 431.643 359.321 431.176 359.663C430.701 359.997 430.592 360.658 430.935 361.132C435.012 366.816 449.392 367.679 455.812 363.986C462.659 361.661 463.982 361.397 470.986 361.964C478.689 362.594 485.381 365.929 489.342 371.107C493.777 376.908 494.252 385.017 490.478 390.382H490.47Z" fill="#1E0F3C"/>
<path d="M490.462 390.382C482.167 402.192 470.371 412.043 456.341 418.892C442.7 425.548 427.223 429.241 411.535 429.591C405.225 420.385 400.758 409.959 398.221 399.051C398.112 398.576 397.996 398.102 397.902 397.62C393.895 379.201 395.342 359.538 402.618 342.239C402.968 341.415 403.396 340.622 403.894 339.875C404.283 339.292 404.719 338.732 405.193 338.211C408.493 334.526 413.691 332.256 419.177 332.256C419.823 332.256 420.461 332.287 421.114 332.349C428.009 333.033 434.903 337.014 440.537 343.568C443.774 347.339 446.342 351.553 449.065 356.016C450.427 358.255 451.827 360.557 453.345 362.835C447.229 365.222 435.759 364.265 432.631 359.904C432.296 359.437 431.635 359.321 431.168 359.663C430.693 359.997 430.584 360.658 430.927 361.132C435.004 366.816 449.384 367.679 455.804 363.986C462.651 361.661 463.974 361.396 470.978 361.964C478.681 362.594 485.373 365.929 489.334 371.107C493.769 376.908 494.244 385.017 490.47 390.382H490.462Z" fill="url(#paint0_linear_133_4603)"/>
<path d="M654.414 576.405C653.877 576.405 653.34 576.375 652.789 576.308L549.076 564.202C541.463 563.315 535.998 556.402 536.885 548.803L555.294 391.366C556.182 383.76 563.101 378.299 570.706 379.186L674.418 391.292C678.102 391.724 681.405 393.564 683.708 396.469C686.012 399.375 687.041 403.01 686.609 406.691L668.2 564.127C667.372 571.182 661.355 576.397 654.406 576.397L654.414 576.405ZM538.131 548.952C537.318 555.873 542.298 562.161 549.225 562.973L652.938 575.079C659.864 575.891 666.157 570.914 666.97 563.993L685.379 406.557C685.774 403.204 684.834 399.896 682.739 397.252C680.644 394.607 677.639 392.931 674.284 392.536L570.572 380.43C563.645 379.618 557.352 384.594 556.539 391.515L538.131 548.952Z" fill="#1E0F3C"/>
<path d="M662.518 603.701C661.982 603.701 661.445 603.671 660.893 603.604L532.285 588.6C524.672 587.713 519.207 580.8 520.094 573.201L543.693 371.445C544.58 363.839 551.499 358.378 559.104 359.265L687.712 374.269C695.325 375.155 700.79 382.069 699.903 389.668L676.305 591.423C675.477 598.478 669.46 603.693 662.511 603.693L662.518 603.701ZM521.34 573.343C520.527 580.264 525.508 586.551 532.434 587.363L661.042 602.367C667.969 603.179 674.262 598.203 675.074 591.282L698.672 389.526C699.485 382.605 694.505 376.318 687.578 375.506L558.97 360.502C552.043 359.697 545.75 364.666 544.938 371.587L521.34 573.343Z" fill="#E40000"/>
<path d="M662.518 603.701C661.982 603.701 661.445 603.671 660.893 603.604L532.285 588.6C524.672 587.713 519.207 580.8 520.094 573.201L543.693 371.445C544.58 363.839 551.499 358.378 559.104 359.265L687.712 374.269C695.325 375.155 700.79 382.069 699.903 389.668L676.305 591.423C675.477 598.478 669.46 603.693 662.511 603.693L662.518 603.701ZM521.34 573.343C520.527 580.264 525.508 586.551 532.434 587.363L661.042 602.367C667.969 603.179 674.262 598.203 675.074 591.282L698.672 389.526C699.485 382.605 694.505 376.318 687.578 375.506L558.97 360.502C552.043 359.697 545.75 364.666 544.938 371.587L521.34 573.343Z" fill="#1E0F3C"/>
<path d="M597.249 591.215C592.119 591.215 587.937 587.043 587.937 581.91C587.937 576.777 592.112 572.605 597.249 572.605C602.386 572.605 606.562 576.777 606.562 581.91C606.562 587.043 602.386 591.215 597.249 591.215ZM597.249 573.857C592.805 573.857 589.189 577.47 589.189 581.91C589.189 586.35 592.805 589.963 597.249 589.963C601.693 589.963 605.309 586.35 605.309 581.91C605.309 577.47 601.693 573.857 597.249 573.857Z" fill="#1E0F3C"/>
<path d="M519.409 440.344C515.651 436.495 511.752 432.522 507.262 428.44C509.76 419.483 509.838 412.361 507.496 407.253C504.617 400.979 503.053 398.063 495.909 394.829C493.326 393.655 490.532 391.237 490.649 389.651C490.945 385.724 489.793 382.443 487.49 380.663C486.447 379.862 485.21 379.411 484.012 379.411C483.482 379.411 482.977 379.497 482.494 379.668C478.993 380.873 475.966 388.065 476.261 391.4C476.557 394.767 478.393 397.76 480.168 400.248L480.222 400.334C480.494 400.707 480.767 401.08 481.039 401.469C482.51 403.498 484.019 405.589 484.86 407.906C485.879 410.705 486.151 411.467 484.478 413.364L484.424 413.427C483.412 414.399 481.981 414.951 480.393 414.958C478.58 414.958 476.962 414.259 475.958 413.053C469.826 405.714 465.733 396.835 464.122 387.388C463.57 384.123 460.543 381.565 457.22 381.565C453.898 381.565 450.886 384.115 450.318 387.373C450.194 388.088 450.092 388.819 450.022 389.542C448.567 388.523 446.77 387.933 444.988 387.933C444.085 387.933 443.206 388.08 442.381 388.368C438.903 389.565 436.498 393.235 436.786 396.897C436.88 397.993 437.004 399.066 437.16 400.108C437.004 400.093 436.841 400.085 436.677 400.085C435.269 400.085 433.868 400.544 432.615 401.399C430.701 402.721 429.542 404.75 429.518 406.833C429.417 415.518 432.53 424.35 438.055 431.06C439.02 432.227 440.07 433.346 441.191 434.404C440.949 434.442 440.693 434.458 440.444 434.458C438.988 434.458 437.3 433.867 435.814 432.833C434.553 431.947 433.448 430.85 432.374 429.793C431.635 429.054 430.701 428.145 429.729 427.336C428.452 426.294 425.892 424.545 422.982 424.545C422.398 424.545 421.807 424.615 421.255 424.763C419.294 425.26 417.605 427.025 417.309 428.868C417.099 430.182 417.613 431.371 418.71 432.149C430.211 448.08 437.354 450.257 454.629 455.505L455.726 455.839C458.87 456.795 463.352 457.519 467.32 458.156C470.69 458.7 474.176 459.26 475.328 459.789C476.72 460.419 483.91 464.578 484.611 469.119C484.665 469.484 484.93 469.787 485.28 469.896L485.428 469.943L485.552 469.857C485.84 469.679 486.12 469.484 486.408 469.282L486.525 469.197L486.548 469.057C486.548 468.979 486.548 468.909 486.548 468.816V468.8C485.708 463.428 478.012 458.848 476.152 458.008C474.775 457.379 471.484 456.85 467.647 456.236C463.749 455.606 459.329 454.891 456.325 453.973L455.213 453.639C437.883 448.367 431.394 446.4 420.22 430.881L420.111 430.71L419.947 430.617C419.379 430.252 419.161 429.785 419.255 429.171C419.426 428.09 420.546 426.963 421.753 426.644C422.157 426.543 422.577 426.496 423.005 426.496C425.293 426.496 427.441 427.974 428.507 428.852C429.339 429.529 430.141 430.314 430.911 431.076L431.02 431.185C432.156 432.312 433.347 433.471 434.709 434.435C436.514 435.686 438.607 436.409 440.475 436.409C441.354 436.409 442.187 436.254 442.949 435.951C447.906 440.064 454.03 442.956 460.239 444.091C460.302 444.107 460.348 444.107 460.411 444.107C460.893 444.107 461.298 443.772 461.368 443.314C461.422 443.057 461.368 442.801 461.228 442.583C461.08 442.365 460.846 442.217 460.59 442.171C452.481 440.678 444.824 436.184 439.595 429.824C434.351 423.472 431.402 415.098 431.503 406.865C431.526 405.411 432.359 403.972 433.751 403.008C434.67 402.386 435.72 402.036 436.724 402.036C436.996 402.036 437.269 402.06 437.533 402.114C440.607 417.726 451.836 431.807 466.216 438.034C466.34 438.081 466.465 438.104 466.597 438.104C466.978 438.104 467.336 437.879 467.492 437.521C467.71 437.024 467.476 436.456 466.986 436.231C453.127 430.236 442.303 416.614 439.416 401.547L439.377 401.337C439.354 401.189 439.323 401.041 439.3 400.878C439.066 399.548 438.879 398.157 438.771 396.734C438.553 393.935 440.389 391.12 443.05 390.195C443.681 389.977 444.35 389.861 445.042 389.861C446.871 389.861 448.668 390.638 449.875 391.944C449.626 399.027 451.548 406.157 455.29 412.043C459.609 418.846 464.939 426.302 473.569 428.681C473.655 428.712 473.748 428.728 473.841 428.728C474.285 428.728 474.658 428.44 474.783 428.005C474.923 427.492 474.612 426.947 474.098 426.807C466.122 424.607 461.056 417.493 456.932 411.001C453.547 405.667 451.727 399.198 451.812 392.769C451.812 392.318 451.835 391.874 451.859 391.431C451.921 390.172 452.061 388.912 452.271 387.707C452.676 385.398 454.909 383.516 457.259 383.516C459.609 383.516 461.835 385.398 462.231 387.715C463.889 397.496 468.138 406.694 474.495 414.305C475.88 415.961 478.028 416.91 480.424 416.91C482.533 416.894 484.447 416.14 485.825 414.795C485.871 414.764 485.91 414.725 485.934 414.694L485.988 414.64C486.159 414.445 486.315 414.259 486.447 414.072C488.323 411.623 487.692 409.881 486.735 407.23C485.809 404.68 484.222 402.487 482.658 400.31C482.37 399.922 482.082 399.517 481.802 399.113C480.105 396.726 478.502 394.121 478.246 391.229C477.997 388.407 480.806 382.319 483.163 381.503C483.444 381.409 483.739 381.363 484.051 381.363C484.821 381.363 485.63 381.658 486.33 382.21C488.112 383.579 488.992 386.238 488.743 389.503C488.494 392.846 493.279 395.762 495.139 396.609C501.652 399.556 503.022 402.098 505.761 408.07C507.947 412.844 507.776 419.717 505.247 428.495C505.146 428.844 505.263 429.233 505.535 429.482C510.243 433.712 514.336 437.91 517.939 441.603C517.939 441.603 517.944 441.608 517.954 441.619L518.172 441.836L518.398 441.642C518.725 441.37 519.059 441.106 519.409 440.841L519.542 440.74V440.445L519.448 440.344H519.409ZM486.058 414.049C485.949 414.181 485.832 414.305 485.716 414.422C485.879 414.235 486.027 414.049 486.159 413.878C486.136 413.94 486.105 413.994 486.058 414.049Z" fill="#1E0F3C"/>
<path d="M486.159 413.878C486.136 413.94 486.105 413.994 486.058 414.049C485.949 414.181 485.833 414.305 485.716 414.422C485.879 414.235 486.027 414.049 486.159 413.878Z" fill="#1E0F3C"/>
<path d="M517.907 441.603C517.168 442.241 516.46 442.925 515.799 443.64C507.021 453.102 497.201 461.546 486.525 468.816C485.685 463.443 477.989 458.864 476.129 458.024C474.752 457.394 471.46 456.865 467.624 456.251C463.725 455.621 459.306 454.906 456.302 453.989L455.189 453.654C437.86 448.383 431.37 446.416 420.196 430.897L420.087 430.726L419.924 430.633C419.356 430.267 419.138 429.801 419.231 429.187C419.403 428.106 420.523 426.978 421.729 426.66C422.134 426.559 422.554 426.512 422.982 426.512C425.27 426.512 427.417 427.989 428.483 428.868C429.316 429.544 430.118 430.329 430.888 431.091L430.997 431.2C432.133 432.328 433.323 433.486 434.685 434.45C436.49 435.702 438.584 436.425 440.451 436.425C441.331 436.425 442.163 436.269 442.926 435.966C447.882 440.079 454.006 442.972 460.216 444.107C460.278 444.122 460.325 444.122 460.387 444.122C460.87 444.122 461.274 443.788 461.344 443.329C461.399 443.073 461.344 442.816 461.204 442.598C461.056 442.381 460.823 442.233 460.566 442.186C452.458 440.693 444.801 436.2 439.572 429.84C434.327 423.487 431.378 415.114 431.479 406.88C431.503 405.426 432.335 403.988 433.728 403.024C434.646 402.402 435.697 402.052 436.701 402.052C436.973 402.052 437.245 402.075 437.51 402.13C440.584 417.742 451.812 431.822 466.192 438.05C466.317 438.097 466.441 438.12 466.573 438.12C466.955 438.12 467.313 437.894 467.468 437.537C467.686 437.039 467.453 436.472 466.962 436.246C453.104 430.252 442.28 416.63 439.393 401.562L439.354 401.352C439.331 401.204 439.3 401.057 439.276 400.893C439.043 399.564 438.856 398.172 438.747 396.749C438.529 393.95 440.366 391.136 443.027 390.211C443.657 389.993 444.326 389.876 445.019 389.876C446.848 389.876 448.645 390.654 449.851 391.96C449.602 399.043 451.524 406.173 455.267 412.058C459.586 418.861 464.916 426.318 473.546 428.697C473.631 428.728 473.725 428.743 473.818 428.743C474.261 428.743 474.635 428.456 474.759 428.02C474.9 427.507 474.588 426.963 474.075 426.823C466.099 424.623 461.033 417.509 456.909 411.016C453.524 405.683 451.703 399.214 451.789 392.784C451.789 392.333 451.812 391.89 451.835 391.447C451.898 390.187 452.038 388.928 452.248 387.723C452.652 385.413 454.886 383.532 457.236 383.532C459.586 383.532 461.811 385.413 462.208 387.73C463.865 397.511 468.114 406.709 474.472 414.321C475.857 415.977 478.004 416.925 480.401 416.925C482.51 416.91 484.424 416.156 485.801 414.811C485.848 414.779 485.887 414.741 485.91 414.71L485.965 414.655C486.136 414.461 486.291 414.274 486.424 414.088C488.299 411.638 487.669 409.897 486.712 407.246C485.786 404.695 484.198 402.503 482.634 400.326C482.346 399.937 482.058 399.533 481.778 399.128C480.082 396.742 478.479 394.137 478.222 391.245C477.973 388.422 480.782 382.335 483.14 381.518C483.42 381.425 483.716 381.378 484.027 381.378C484.797 381.378 485.607 381.674 486.307 382.226C488.089 383.594 488.968 386.253 488.719 389.519C488.47 392.862 493.256 395.777 495.116 396.625C501.629 399.572 502.998 402.114 505.737 408.085C507.924 412.859 507.753 419.732 505.224 428.51C505.123 428.86 505.239 429.249 505.512 429.497C510.219 433.727 514.312 437.926 517.915 441.619L517.907 441.603Z" fill="white"/>
<path d="M486.159 413.878C486.136 413.94 486.105 413.994 486.058 414.049C485.949 414.181 485.833 414.305 485.716 414.422C485.879 414.235 486.027 414.049 486.159 413.878Z" fill="#1E0F3C"/>
<path d="M539.314 440.429C537.54 438.213 534.77 436.72 532.404 436.72C532.109 436.72 531.828 436.744 531.564 436.783C531.478 436.806 531.19 436.884 530.902 436.961L530.07 437.171L530.015 437.187H529.969C525.043 438.353 520.436 441.028 516.989 444.744C506.648 455.894 494.867 465.651 481.965 473.737C481.537 474.009 481.265 474.452 481.226 474.95C481.179 475.486 481.397 476.007 481.81 476.381C486.004 480.066 489.031 485.057 490.322 490.414C491.583 495.686 491.194 501.408 489.225 506.532C489.046 506.991 489.124 507.496 489.435 507.861C489.684 508.157 490.019 508.328 490.4 508.328C490.47 508.328 490.548 508.328 490.626 508.305C504.096 505.995 514.616 495.569 523.121 485.672C528.436 479.491 533.813 464.773 537.081 453.056L537.104 452.962C537.166 452.745 537.314 452.449 537.4 452.27C537.781 451.446 538.435 450.156 538.917 449.23L539.159 448.764C539.96 447.209 540.334 446.478 540.598 446.089C541.283 444.379 540.816 442.318 539.306 440.421L539.314 440.429ZM499.24 489.023C495.692 489.023 492.812 486.138 492.812 482.601C492.812 479.063 495.699 476.171 499.24 476.171C502.78 476.171 505.667 479.055 505.667 482.601C505.667 486.146 502.78 489.023 499.24 489.023Z" fill="white"/>
<path d="M542.761 443.259C542.528 441.899 541.866 440.499 540.839 439.216C538.692 436.526 535.377 434.785 532.389 434.785C531.969 434.785 531.548 434.816 531.144 434.886C531.12 434.886 530.163 435.127 530.163 435.127C529.969 435.181 529.798 435.228 529.665 435.267L529.759 435.578L529.603 435.282C525.806 436.161 522.125 437.895 518.981 440.313C518.623 440.569 518.289 440.849 517.946 441.137C517.114 441.836 516.312 442.598 515.558 443.415C506.702 452.955 496.765 461.484 486.019 468.761C485.747 468.956 485.467 469.142 485.187 469.329C483.918 470.184 482.564 471.055 480.93 472.089C479.981 472.68 479.382 473.659 479.281 474.787C479.187 475.953 479.639 477.065 480.526 477.842C484.424 481.263 487.233 485.897 488.424 490.873C489.599 495.756 489.241 501.074 487.412 505.824C486.992 506.96 487.187 508.18 487.941 509.105C488.556 509.852 489.459 510.28 490.416 510.28C490.595 510.28 490.782 510.256 490.968 510.225C494.626 509.603 498.275 508.367 501.831 506.548C502.228 506.353 502.625 506.143 503.006 505.933C511.83 501.128 519.191 493.268 524.623 486.955C530.093 480.587 535.564 465.752 538.855 454.004C538.902 453.864 538.933 453.732 538.98 453.577C539.003 453.499 539.12 453.258 539.314 452.846C540.092 451.236 541.944 447.652 542.248 447.147C542.271 447.116 542.302 447.085 542.318 447.038C542.357 446.991 542.38 446.945 542.388 446.906C542.87 445.778 543.003 444.55 542.769 443.259H542.761ZM540.606 446.097C540.349 446.486 539.968 447.217 539.166 448.772L538.925 449.238C538.443 450.171 537.789 451.454 537.408 452.278C537.322 452.457 537.182 452.753 537.112 452.962L537.089 453.063C533.821 464.78 528.436 479.506 523.129 485.68C514.624 495.577 504.103 506.003 490.634 508.312C490.556 508.328 490.478 508.336 490.408 508.336C490.027 508.336 489.692 508.165 489.443 507.869C489.132 507.496 489.054 506.998 489.233 506.54C491.202 501.416 491.591 495.694 490.33 490.422C489.039 485.065 486.012 480.074 481.817 476.388C481.397 476.015 481.187 475.494 481.234 474.958C481.273 474.46 481.545 474.017 481.973 473.745C494.875 465.659 506.656 455.909 516.997 444.752C520.437 441.036 525.051 438.361 529.977 437.203H530.015L530.07 437.187L530.903 436.977C531.198 436.899 531.478 436.829 531.564 436.798C531.828 436.752 532.109 436.736 532.404 436.736C534.77 436.736 537.548 438.229 539.314 440.445C540.824 442.334 541.291 444.402 540.606 446.113V446.097Z" fill="#1E0F3C"/>
<path d="M683.247 392.567C680.796 389.464 677.271 387.497 673.341 387.038L663.039 385.833L662.167 385.732L642.931 383.485L642.83 383.555C642.215 383.998 641.585 384.348 640.939 384.613L641.025 385.235L642.799 385.437C623.322 392.349 606.289 406.406 595.893 424.172C587.037 439.317 582.695 457.767 583.645 476.186C579.816 473.473 575.124 471.988 570.346 471.988C568.494 471.988 566.666 472.206 564.915 472.649C558.962 464.952 551.251 458.522 542.613 454.067C542.201 453.849 541.789 453.639 541.368 453.437C540.59 453.056 539.859 452.706 539.135 452.395L538.847 452.271L538.707 452.55C538.481 453.025 538.373 453.258 538.326 453.406C538.287 453.538 538.256 453.662 538.209 453.81L538.124 454.082L538.388 454.199C538.388 454.199 538.411 454.214 538.427 454.214C539.283 454.595 540.116 454.984 540.909 455.381C541.213 455.536 541.524 455.692 541.835 455.847L542.147 456.01C550.301 460.31 557.6 466.437 563.281 473.737C563.468 473.978 563.662 474.227 563.849 474.476L564.028 474.709C565.242 476.342 566.393 478.045 567.444 479.771C567.615 480.066 567.934 480.245 568.277 480.245C568.463 480.245 568.642 480.198 568.782 480.105C569.241 479.817 569.389 479.234 569.117 478.76C568.214 477.267 567.226 475.79 566.191 474.351C567.545 474.072 568.938 473.932 570.346 473.932C575.249 473.932 580.143 475.697 583.816 478.775C584.042 481.823 584.431 484.918 584.968 487.927C585.294 491.767 583.334 495.702 580.096 497.708C579.762 497.917 579.591 498.298 579.637 498.679L579.739 499.402C579.816 499.885 580.221 500.234 580.703 500.234C580.758 500.234 580.805 500.234 580.844 500.219C581.38 500.141 581.738 499.643 581.668 499.123L581.645 499.014C585.209 496.518 587.255 492.11 586.882 487.678C586.384 484.848 586.018 482.01 585.785 479.219C585.746 478.807 585.715 478.402 585.691 477.982L585.668 477.671C584.407 459.066 588.625 440.421 597.558 425.144C608.429 406.561 626.474 392.318 647.071 386.059C647.157 386.036 647.242 385.997 647.312 385.958L660.027 387.443C645.336 400.824 635.477 419.476 632.24 440.04C632.201 440.297 632.263 440.554 632.419 440.771C632.566 440.981 632.8 441.113 633.065 441.16C634.061 441.3 635.064 441.378 636.037 441.378C641.328 441.378 646.456 439.426 651.413 437.545C652.783 437.024 654.183 436.487 655.568 436.005C657.755 435.251 660.533 434.847 663.614 434.847C669.38 434.847 676.679 436.41 680.103 439.877L665.171 567.542C664.416 574.027 658.922 578.917 652.394 578.917C651.896 578.917 651.39 578.886 650.892 578.824L643.39 577.945C643.367 577.79 643.289 577.634 643.196 577.502C638.932 571.593 641.904 560.335 645.048 548.385C647.11 540.579 649.242 532.516 649.242 525.791C649.242 504.169 650.37 502.007 656.596 490.034L656.93 489.404C657.047 489.171 657.07 488.906 656.992 488.657C656.915 488.409 656.736 488.206 656.51 488.09C656.37 488.012 656.214 487.973 656.051 487.973C655.685 487.973 655.358 488.175 655.195 488.502L654.86 489.139C650.938 496.642 648.978 500.421 648.036 507.582C647.997 507.652 647.966 507.737 647.935 507.838C643.025 531.28 631.049 553.578 614.179 570.629C612.701 572.122 610.6 572.915 608.11 572.915C605.619 572.915 602.896 572.114 600.601 570.715C598.017 569.144 595.76 566.998 593.574 564.938L593.449 564.813C591.885 563.344 590.267 561.812 588.516 560.483C585.061 557.839 581.077 556.331 577.583 556.331C575.926 556.331 574.377 556.665 572.969 557.326C567.701 556.113 561.133 551.619 558.503 548.323C557.344 546.869 556.262 545.283 555.219 543.759L555.173 543.696C553.725 541.582 552.231 539.389 550.457 537.414C548.348 535.074 543.983 531.148 538.411 531.148C538.31 531.148 538.209 531.148 538.155 531.148C536.544 530.938 535.003 530.673 533.556 530.37C533.128 530.285 532.7 530.191 532.28 530.083C526.117 528.66 520.802 526.382 516.476 523.326C510.313 518.988 505.558 512.667 503.092 505.521L503.068 505.467L502.967 505.148L502.633 505.335C502.251 505.552 501.862 505.755 501.481 505.941L501.224 506.073L501.325 506.346C503.932 513.778 508.912 520.379 515.347 524.928C519.962 528.178 525.549 530.565 531.984 532.034C532.404 532.135 532.84 532.221 533.276 532.314C534.77 532.625 536.349 532.889 538.007 533.099C538.007 533.099 538.303 533.099 538.396 533.099C543.228 533.099 547.111 536.621 549.002 538.721C550.652 540.563 552.091 542.662 553.484 544.699L553.725 545.049C554.745 546.542 555.811 548.089 556.97 549.543C559.896 553.213 567.148 558.127 572.891 559.324C572.953 559.34 573.015 559.34 573.07 559.34C573.226 559.34 573.373 559.301 573.529 559.231C574.743 558.609 576.112 558.29 577.591 558.29C580.641 558.29 584.19 559.666 587.325 562.045C589.061 563.375 590.734 564.961 592.22 566.361C594.469 568.491 596.803 570.699 599.573 572.394C600.499 572.954 601.503 573.436 602.569 573.832L602.631 573.848C604.445 574.501 606.343 574.859 608.102 574.859C608.802 574.859 609.479 574.804 610.109 574.703C612.296 574.353 614.125 573.451 615.556 572.005C630.154 557.24 641.375 538.192 647.336 518.117C647.281 520.309 647.258 522.813 647.258 525.791C647.258 532.228 645.172 540.136 643.165 547.786L643.134 547.911C640.013 559.721 637.072 570.878 640.955 577.665L639.554 577.502L639.811 578.031C640.029 578.49 640.262 578.94 640.535 579.438L640.62 579.586L650.635 580.76C651.211 580.83 651.771 580.861 652.362 580.861C659.879 580.861 666.206 575.232 667.085 567.76L686.297 403.451C686.756 399.525 685.651 395.645 683.192 392.543L683.247 392.567ZM669.186 433.315C667.349 433.051 665.49 432.911 663.645 432.911C660.338 432.911 657.335 433.346 654.961 434.178C653.67 434.614 652.37 435.111 651.11 435.585L650.728 435.725C645.935 437.545 640.994 439.419 636.053 439.419C635.477 439.419 634.909 439.395 634.356 439.349C637.78 418.994 647.818 400.691 662.642 387.746L673.115 388.974C676.532 389.371 679.582 391.074 681.722 393.764C683.854 396.462 684.811 399.828 684.406 403.242L680.399 437.521C677.777 435.453 673.917 433.999 669.186 433.307V433.315Z" fill="#1E0F3C"/>
<path d="M681.721 393.771C679.589 391.081 676.531 389.379 673.115 388.982L662.641 387.754C647.818 400.691 637.78 419.001 634.356 439.356C634.908 439.403 635.484 439.426 636.052 439.426C640.994 439.426 645.943 437.552 650.728 435.733L651.109 435.593C652.37 435.119 653.677 434.621 654.961 434.186C657.327 433.354 660.338 432.918 663.645 432.918C665.489 432.918 667.349 433.058 669.186 433.323C673.917 434.015 677.776 435.469 680.399 437.537L684.406 403.257C684.811 399.852 683.854 396.477 681.721 393.779V393.771ZM654.704 430.182C651.164 430.182 648.277 427.297 648.277 423.752C648.277 420.206 651.164 417.33 654.704 417.33C658.245 417.33 661.132 420.214 661.132 423.752C661.132 427.289 658.245 430.182 654.704 430.182Z" fill="white"/>
<path d="M680.127 439.885L665.194 567.55C664.439 574.034 658.946 578.925 652.417 578.925C651.919 578.925 651.413 578.894 650.915 578.832L643.414 577.953C643.391 577.797 643.313 577.642 643.219 577.51C638.955 571.601 641.928 560.343 645.071 548.393C647.133 540.586 649.266 532.524 649.266 525.798C649.266 504.176 650.394 502.015 656.619 490.041L656.954 489.412C657.07 489.178 657.094 488.914 657.016 488.665C656.938 488.416 656.759 488.214 656.533 488.098C656.393 488.02 656.238 487.981 656.074 487.981C655.709 487.981 655.382 488.183 655.218 488.51L654.884 489.147C650.962 496.65 649.001 500.429 648.059 507.589C648.021 507.659 647.989 507.745 647.958 507.846C643.048 531.288 631.073 553.586 614.203 570.637C612.724 572.13 610.623 572.923 608.133 572.923C605.643 572.923 602.919 572.122 600.624 570.722C598.041 569.152 595.784 567.006 593.597 564.945L593.473 564.821C591.909 563.352 590.29 561.82 588.539 560.49C585.084 557.847 581.1 556.339 577.607 556.339C575.949 556.339 574.401 556.673 572.992 557.334C567.724 556.121 561.157 551.627 558.527 548.33C557.367 546.876 556.285 545.29 555.243 543.766L555.196 543.704C553.749 541.589 552.255 539.397 550.481 537.422C548.372 535.082 544.006 531.155 538.435 531.155C538.334 531.155 538.233 531.155 538.178 531.155C536.567 530.945 535.027 530.681 533.579 530.378C533.151 530.292 532.723 530.199 532.303 530.09C526.14 528.667 520.826 526.389 516.499 523.334C510.336 518.995 505.582 512.674 503.115 505.529L503.092 505.475C511.402 500.88 518.359 493.672 524.327 486.721C529.712 480.463 535.089 465.978 538.404 454.214C539.26 454.595 540.092 454.984 540.886 455.381C541.19 455.536 541.501 455.692 541.812 455.847L542.123 456.01C550.278 460.31 557.577 466.437 563.258 473.737C563.444 473.978 563.639 474.227 563.826 474.476L564.005 474.709C565.219 476.342 566.37 478.045 567.421 479.771C567.592 480.066 567.911 480.245 568.253 480.245C568.44 480.245 568.619 480.198 568.759 480.105C569.218 479.817 569.366 479.234 569.094 478.76C568.191 477.267 567.203 475.79 566.168 474.351C567.522 474.072 568.915 473.932 570.323 473.932C575.225 473.932 580.12 475.697 583.793 478.775C584.018 481.823 584.407 484.918 584.944 487.927C585.271 491.767 583.31 495.702 580.073 497.707C579.739 497.917 579.567 498.298 579.614 498.679L579.715 499.402C579.793 499.884 580.198 500.234 580.68 500.234C580.735 500.234 580.781 500.234 580.82 500.219C581.357 500.141 581.715 499.643 581.645 499.123L581.622 499.014C585.186 496.518 587.232 492.109 586.859 487.678C586.361 484.848 585.995 482.01 585.761 479.219C585.723 478.807 585.691 478.402 585.668 477.982L585.645 477.671C584.384 459.066 588.602 440.421 597.535 425.144C608.405 406.561 626.45 392.318 647.048 386.059C647.133 386.036 647.219 385.997 647.289 385.958L660.004 387.443C645.313 400.824 635.454 419.476 632.216 440.04C632.178 440.297 632.24 440.554 632.395 440.771C632.543 440.981 632.777 441.113 633.041 441.16C634.037 441.3 635.041 441.378 636.014 441.378C641.305 441.378 646.433 439.426 651.39 437.545C652.759 437.024 654.16 436.487 655.545 436.005C657.732 435.251 660.51 434.847 663.591 434.847C669.357 434.847 676.656 436.41 680.08 439.877L680.127 439.885Z" fill="white"/>
<path d="M654.705 417.33C651.164 417.33 648.277 420.214 648.277 423.752C648.277 427.289 651.164 430.182 654.705 430.182C658.245 430.182 661.132 427.297 661.132 423.752C661.132 420.206 658.245 417.33 654.705 417.33ZM654.705 428.883C651.88 428.883 649.585 426.582 649.585 423.752C649.585 420.922 651.88 418.628 654.705 418.628C657.529 418.628 659.833 420.93 659.833 423.752C659.833 426.574 657.537 428.883 654.705 428.883Z" fill="#1E0F3C"/>
<path d="M659.833 423.752C659.833 426.582 657.537 428.883 654.705 428.883C651.872 428.883 649.584 426.582 649.584 423.752C649.584 420.922 651.88 418.628 654.705 418.628C657.529 418.628 659.833 420.93 659.833 423.752Z" fill="#1E0F3C"/>
<path d="M499.24 476.163C495.692 476.163 492.812 479.047 492.812 482.593C492.812 486.138 495.699 489.015 499.24 489.015C502.78 489.015 505.667 486.13 505.667 482.593C505.667 479.055 502.78 476.163 499.24 476.163ZM499.24 487.717C496.408 487.717 494.112 485.423 494.112 482.593C494.112 479.763 496.408 477.461 499.24 477.461C502.072 477.461 504.36 479.763 504.36 482.593C504.36 485.423 502.065 487.717 499.24 487.717Z" fill="#1E0F3C"/>
<path d="M504.368 482.601C504.368 485.431 502.072 487.724 499.248 487.724C496.423 487.724 494.12 485.431 494.12 482.601C494.12 479.771 496.415 477.469 499.248 477.469C502.08 477.469 504.368 479.771 504.368 482.601Z" fill="#1E0F3C"/>
<path d="M615.292 528.38C606.008 535.12 594.819 548.167 590.741 562.131L590.601 562.613L590.22 562.286C589.901 562.014 589.582 561.742 589.247 561.47C589.278 561.361 589.309 561.244 589.348 561.135C593.543 547.428 604.398 534.288 614.342 527.073C649.382 501.626 663.715 473.185 660.681 434.986C658.782 435.165 657.054 435.515 655.599 436.013C655.272 436.129 654.946 436.246 654.611 436.363C657.747 458.249 649.755 485.594 634.838 502.613C629.127 509.121 622.318 514.68 615.72 520.053C611.961 523.124 608.063 526.288 604.429 529.608C593.862 539.233 587.457 548.664 585.006 558.282C584.983 558.391 584.944 558.5 584.929 558.609L584.866 558.577C584.462 558.375 584.065 558.197 583.668 558.018L583.411 557.909L583.481 557.637C586.065 547.786 592.554 538.223 603.324 528.411C607.098 524.974 611.136 521.693 614.685 518.801C621.252 513.452 627.999 507.947 633.601 501.548C647.989 485.127 655.981 458.537 653.039 436.876C652.961 436.262 652.868 436.021 652.775 435.414C652.759 435.344 652.751 435.243 652.775 435.126L652.814 434.948L654.059 434.497L654.86 434.225C656.564 433.626 658.548 433.237 660.766 433.058C661.015 433.035 661.264 433.012 661.521 432.996H661.63L661.723 433.051C661.98 433.222 662.143 433.494 662.175 433.789C662.221 434.263 662.26 434.396 662.299 434.87C665.381 473.698 650.884 502.536 615.292 528.38Z" fill="#1E0F3C"/>
<path d="M614.334 527.066C604.389 534.281 593.542 547.42 589.34 561.128C589.309 561.237 589.278 561.353 589.239 561.462C589.208 561.439 589.169 561.4 589.138 561.377L588.959 561.237L589.021 561.019C593.379 546.806 604.771 533.589 614.14 526.793C649.016 501.463 663.287 473.239 660.369 435.329C658.626 435.507 657.054 435.834 655.692 436.3C655.451 436.394 655.202 436.479 654.953 436.565C658.035 458.716 649.88 485.92 635.072 502.815C629.321 509.377 622.505 514.921 615.914 520.294L615.61 520.535C611.953 523.528 608.171 526.607 604.638 529.833C594.071 539.451 587.753 548.773 585.309 558.344L585.208 558.733L584.913 558.593C584.936 558.484 584.967 558.375 584.99 558.267C587.442 548.649 593.846 539.218 604.413 529.592C608.055 526.272 611.945 523.108 615.704 520.037C622.294 514.664 629.111 509.105 634.823 502.598C649.74 485.578 657.731 458.234 654.595 436.347C654.93 436.23 655.257 436.114 655.583 435.997C657.038 435.5 658.766 435.142 660.665 434.971C663.699 473.162 649.366 501.61 614.326 527.058L614.334 527.066Z" fill="#1E0F3C"/>
<path d="M614.334 527.066C604.39 534.281 593.542 547.42 589.34 561.128C589.309 561.237 589.278 561.353 589.239 561.462C589.06 562.037 588.905 562.597 588.765 563.18C588.562 563.95 588.383 564.72 588.235 565.489C586.952 564.199 585.621 563.009 584.236 561.952C584.321 561.377 584.423 560.817 584.539 560.241C584.64 559.697 584.757 559.145 584.913 558.601C584.936 558.492 584.967 558.383 584.991 558.274C587.442 548.657 593.846 539.226 604.413 529.6C608.055 526.28 611.945 523.116 615.704 520.045C622.295 514.672 629.111 509.113 634.823 502.605C649.74 485.586 657.731 458.241 654.595 436.355C654.93 436.238 655.257 436.122 655.584 436.005C657.039 435.507 658.766 435.15 660.665 434.979C663.7 473.169 649.366 501.618 614.327 527.066H614.334Z" fill="white"/>
<path d="M590.43 562.037C590.22 562.737 590.033 563.445 589.87 564.144C589.659 564.976 589.488 565.816 589.348 566.648C589.247 567.254 589.154 567.861 589.084 568.459C589.06 568.662 588.944 568.833 588.788 568.934C588.484 568.576 588.173 568.226 587.846 567.884C586.578 566.516 585.24 565.256 583.87 564.137C583.551 563.872 583.232 563.616 582.905 563.367C582.859 563.336 582.812 563.297 582.765 563.266C582.765 563.188 582.765 563.11 582.781 563.048C582.859 562.372 582.96 561.695 583.076 561.019C583.154 560.56 583.248 560.101 583.341 559.643C583.473 558.997 583.621 558.352 583.8 557.714C584.205 557.893 584.609 558.08 585.014 558.282C584.835 558.935 584.687 559.588 584.563 560.249C584.446 560.824 584.345 561.384 584.259 561.96C585.637 563.017 586.975 564.207 588.259 565.497C588.407 564.728 588.586 563.958 588.788 563.188C588.959 562.496 589.154 561.82 589.364 561.135C589.737 561.431 590.095 561.742 590.453 562.045L590.43 562.037Z" fill="#1E0F3C"/>
<path d="M534.653 651.084L534.163 651.737L534.661 651.084H534.653Z" fill="#1E0F3C"/>
<path d="M534.653 651.084L534.163 651.737L534.661 651.084H534.653Z" fill="#1E0F3C"/>
<path d="M533.828 651.107L533.805 651.131C533.805 651.131 533.782 651.131 533.758 651.115C533.782 651.115 533.797 651.1 533.82 651.1L533.828 651.107Z" fill="white"/>
<path d="M536.054 648.682L535.991 648.767L534.007 651.411C533.929 651.411 533.852 651.426 533.782 651.457C532.373 651.146 529.416 650.719 528.739 652.468C528.521 653.036 527.821 653.238 527.424 653.308C526.366 653.494 525.175 653.183 524.817 652.779C523.3 651.069 523.635 649.094 524.21 647.22C524.81 645.261 527.471 641.404 528.801 640.565C529.782 639.95 530.864 639.328 531.821 639.328C532.186 639.328 532.537 639.422 532.856 639.639C533.992 640.417 534.272 641.451 533.782 643.115C533.229 644.981 534.474 646.559 535.392 647.71C535.392 647.71 535.392 647.715 535.392 647.725C535.641 648.044 535.968 648.464 536.062 648.674L536.054 648.682Z" fill="#E9E7EC"/>
<path d="M568.455 638.294L568.261 638.551L568.23 638.598C563.358 645.136 558.62 650.05 552.869 654.536C550.885 656.076 548.27 656.931 545.516 656.931C544.761 656.931 543.99 656.869 543.228 656.744C540.038 656.208 537.197 654.591 535.376 652.282L536.979 650.151C538.497 651.247 540.536 651.714 542.395 652.126L542.94 652.25C543.415 652.351 543.882 652.406 544.348 652.406C547.352 652.406 550.184 650.439 552.036 648.783C556.48 644.825 561.382 639.647 565.164 634.943C565.187 634.92 565.195 634.897 565.218 634.881L565.374 634.687C566.378 635.985 567.428 637.221 568.455 638.287V638.294Z" fill="white"/>
<path d="M568.261 638.559L568.23 638.605C563.358 645.144 558.62 650.058 552.869 654.544C550.885 656.083 548.27 656.939 545.516 656.939C544.761 656.939 543.99 656.877 543.228 656.752C540.038 656.216 537.197 654.598 535.376 652.289L536.979 650.159C538.497 651.255 540.536 651.722 542.395 652.134L542.94 652.258C543.415 652.359 543.882 652.414 544.348 652.414C547.352 652.414 550.184 650.447 552.036 648.791C556.48 644.833 561.382 639.655 565.164 634.951C566.136 636.203 567.179 637.431 568.261 638.551V638.559Z" fill="white"/>
<path d="M594.624 576.911C593.831 579.306 591.574 581.467 588.407 582.89C588.376 582.789 588.345 582.703 588.306 582.602C588.306 582.602 588.306 582.587 588.306 582.579C588.158 582.167 587.995 581.762 587.823 581.374C587.823 581.374 587.823 581.374 587.823 581.358C587.784 581.257 587.738 581.164 587.691 581.063C590.282 579.889 592.173 578.108 592.788 576.281C593.379 574.501 591.839 572.604 589.885 570.209L589.815 570.123C587.683 567.511 585.364 565.233 582.913 563.367C582.415 562.986 581.863 562.543 581.303 562.076L581.139 561.944C579.054 560.241 576.463 558.127 574.758 558.127C574.712 558.127 574.665 558.127 574.618 558.127C572.37 558.251 569.817 560.241 568.79 562.628C568.689 562.589 568.588 562.543 568.494 562.504C568.09 562.333 567.685 562.193 567.28 562.045C567.28 562.045 567.265 562.045 567.257 562.045C567.156 562.014 567.063 561.983 566.961 561.944C568.269 558.803 571.467 556.338 574.517 556.175C574.579 556.175 574.642 556.175 574.696 556.175C577.155 556.175 579.972 558.476 582.462 560.498C583.038 560.972 583.59 561.423 584.096 561.804C586.664 563.771 589.1 566.158 591.317 568.872L591.387 568.973C593.628 571.725 595.558 574.096 594.632 576.895L594.624 576.911Z" fill="#1E0F3C"/>
<path d="M568.471 562.527C568.425 562.628 568.386 562.722 568.347 562.823C567.942 562.659 567.537 562.512 567.133 562.364C567.172 562.263 567.211 562.162 567.265 562.068C567.67 562.208 568.074 562.356 568.479 562.527H568.471Z" fill="#1E0F3C"/>
<path d="M588.298 582.587C588.197 582.633 588.096 582.672 588.002 582.719C587.855 582.307 587.691 581.902 587.52 581.506C587.621 581.467 587.715 581.42 587.816 581.366C587.816 581.366 587.816 581.366 587.816 581.382C587.987 581.77 588.15 582.175 588.298 582.587Z" fill="#1E0F3C"/>
<path d="M588.407 582.89C588.376 582.789 588.345 582.703 588.306 582.602C588.306 582.602 588.306 582.587 588.306 582.579C588.158 582.167 587.995 581.762 587.824 581.374C587.824 581.374 587.824 581.374 587.824 581.358C587.785 581.257 587.738 581.164 587.691 581.063C587.014 579.484 586.228 577.937 585.349 576.476C581.707 570.45 575.685 565.412 568.79 562.636C568.689 562.597 568.588 562.551 568.495 562.512C568.09 562.341 567.685 562.201 567.281 562.053C567.281 562.053 567.265 562.053 567.257 562.053C567.156 562.022 567.063 561.991 566.962 561.952C563.771 560.863 560.55 560.319 557.398 560.319C553.546 560.319 549.897 561.135 546.528 562.753C534.49 568.522 523.285 575.729 513.208 584.18C512.935 584.406 512.803 584.764 512.873 585.113C513.122 586.412 513.962 587.944 515.363 589.654C515.628 589.988 515.923 590.331 516.227 590.665C517.394 591.948 518.779 593.223 520.226 594.35C520.592 594.638 520.95 594.91 521.316 595.167C522.561 596.061 523.759 596.776 524.779 597.25C525.051 597.39 525.323 597.499 525.611 597.6C525.712 597.639 525.829 597.662 525.946 597.662C526.14 597.662 526.335 597.6 526.514 597.483C526.537 597.468 526.553 597.452 526.607 597.406C532.42 592.453 541.003 586.855 544.24 585.526L544.769 585.308C547.251 584.274 550.994 582.711 555.126 582.711C559.258 582.711 563.382 584.445 566.814 587.874C570.72 591.777 571.825 603.198 568.961 610.102L568.549 611.105C566.051 617.123 563.896 622.317 561.157 626.803C560.947 627.153 560.729 627.503 560.503 627.845L560.402 627.993L560.472 628.148C560.62 628.475 560.791 628.809 560.978 629.159C561.732 630.589 562.752 632.191 563.904 633.793C564.16 634.158 564.433 634.516 564.705 634.881C565.849 636.382 567.078 637.82 568.261 639.025C568.58 639.344 568.891 639.663 569.21 639.958C570.891 641.552 572.424 642.641 573.778 643.2C573.903 643.255 574.027 643.278 574.152 643.278C574.463 643.278 574.759 643.13 574.953 642.866C580.672 634.788 584.781 627.161 587.505 619.549C592.134 606.627 592.453 593.619 588.415 582.898L588.407 582.89ZM585.66 618.888C583.061 626.126 579.194 633.381 573.817 641.054C572.774 640.487 571.568 639.554 570.323 638.333V638.147H570.121C570.02 638.046 569.926 637.96 569.817 637.851L569.74 637.773C567.055 635.044 564.23 631.204 562.627 628.132C565.53 623.46 567.755 618.087 570.323 611.883L570.743 610.864C573.622 603.937 572.992 591.341 568.175 586.513C564.378 582.719 559.989 580.806 555.118 580.806C550.535 580.806 546.605 582.447 543.999 583.527L543.477 583.745C540.155 585.113 531.727 590.564 525.751 595.586C523.347 594.521 519.845 591.808 517.472 589.164V589.149L517.371 589.055C517.324 589.001 517.285 588.954 517.238 588.915L517.176 588.838C516.032 587.516 515.254 586.311 514.927 585.316C524.747 577.152 535.665 570.154 547.376 564.549C550.481 563.056 553.865 562.302 557.429 562.302C567.475 562.302 578.26 568.561 583.661 577.517C584.657 579.166 585.528 580.915 586.267 582.758C590.469 593.223 590.259 606.059 585.66 618.904V618.888Z" fill="#1E0F3C"/>
<path d="M592.772 576.297C592.158 578.124 590.267 579.897 587.675 581.078C586.998 579.5 586.213 577.953 585.333 576.491C581.692 570.465 575.669 565.427 568.774 562.652C569.802 560.265 572.362 558.274 574.603 558.15C574.649 558.15 574.696 558.15 574.743 558.15C576.447 558.15 579.038 560.265 581.124 561.967L581.287 562.1C581.855 562.558 582.4 563.001 582.898 563.39C585.341 565.256 587.668 567.534 589.8 570.147L589.87 570.232C591.823 572.635 593.364 574.524 592.772 576.304V576.297Z" fill="white"/>
<path d="M585.66 618.88C583.061 626.119 579.194 633.373 573.817 641.047C572.774 640.479 571.568 639.546 570.323 638.325V638.139H570.121C570.02 638.038 569.926 637.952 569.817 637.843L569.739 637.766C567.055 635.037 564.23 631.196 562.627 628.125C565.53 623.452 567.755 618.079 570.323 611.875L570.743 610.856C573.622 603.929 572.992 591.333 568.175 586.505C564.378 582.711 559.989 580.798 555.118 580.798C550.535 580.798 546.605 582.439 543.999 583.52L543.477 583.737C540.155 585.106 531.727 590.556 525.751 595.579C523.347 594.513 519.845 591.8 517.472 589.156V589.141L517.371 589.048C517.324 588.993 517.285 588.947 517.238 588.908L517.176 588.83C516.032 587.508 515.254 586.303 514.927 585.308C524.747 577.144 535.665 570.147 547.376 564.541C550.481 563.048 553.865 562.294 557.429 562.294C567.475 562.294 578.26 568.553 583.66 577.51C584.656 579.158 585.528 580.907 586.267 582.75C590.469 593.215 590.259 606.051 585.66 618.896V618.88Z" fill="#E9E7EC"/>
<path d="M516.935 590.494L516.678 590.688L516.655 590.704C510.11 595.563 505.193 600.298 500.703 606.059C498.711 608.617 497.909 612.124 498.493 615.692C499.03 618.872 500.648 621.718 502.959 623.537L502.687 623.74L502.43 623.934C502.111 624.19 501.971 624.587 502.08 624.976L502.15 625.279C502.15 625.279 502.173 625.349 502.173 625.38C499.263 623.289 497.224 619.883 496.586 616.019C495.894 611.929 496.843 607.863 499.178 604.87C503.769 598.984 508.78 594.156 515.425 589.211L515.682 589.024L515.876 589.273C516.079 589.522 516.297 589.771 516.522 590.027L516.717 590.245L516.958 590.509L516.935 590.494Z" fill="#1E0F3C"/>
<path d="M500.446 605.865C498.399 608.501 497.567 612.1 498.174 615.747C498.742 619.129 500.461 622.076 502.951 623.949L502.617 624.198C502.399 624.362 502.306 624.634 502.376 624.89C502.399 624.991 502.43 625.085 502.453 625.186C499.551 623.141 497.536 619.798 496.89 615.957C496.22 611.953 497.146 607.98 499.419 605.056C503.955 599.233 508.966 594.389 515.604 589.452C515.869 589.786 516.156 590.113 516.46 590.439C509.877 595.322 504.928 600.104 500.446 605.849V605.865Z" fill="#1E0F3C"/>
<path d="M516.919 589.499C516.865 589.444 516.81 589.382 516.763 589.328L516.701 589.258L517.098 588.752C517.191 588.807 517.269 588.877 517.355 588.978C517.378 589.009 517.401 589.048 517.425 589.087L516.927 589.499H516.919Z" fill="#1E0F3C"/>
<path d="M517.144 589.265C517.066 589.187 517.004 589.11 516.927 589.032C516.989 589.063 517.035 589.117 517.082 589.172C517.105 589.195 517.121 589.234 517.144 589.265Z" fill="#1E0F3C"/>
<path d="M522.032 594.902L521.697 595.167C517.02 598.898 511.861 603.773 507.908 608.19C506.78 609.449 504.235 612.684 504.897 615.545L505.021 616.105C505.473 618.11 505.932 620.179 507.153 621.353L507.091 621.329C506.897 621.259 506.71 621.22 506.523 621.22C506.251 621.22 505.994 621.298 505.729 621.469L505.613 621.563L505.356 621.749L505.099 621.944C504.01 620.427 503.543 618.39 503.138 616.594L502.998 615.988C502.173 612.373 504.811 608.742 506.469 606.907C510.398 602.514 515.518 597.654 520.172 593.907C520.195 593.891 520.211 593.876 520.234 593.86L520.436 593.697C520.499 593.759 520.576 593.806 520.639 593.86L520.958 594.109C521.207 594.296 521.456 594.482 521.697 594.653L522.047 594.91L522.032 594.902Z" fill="#1E0F3C"/>
<path d="M521.495 594.91C516.787 598.665 511.643 603.525 507.667 607.972C506.508 609.263 503.885 612.598 504.578 615.615L504.702 616.175C505.169 618.258 505.652 620.396 506.974 621.633C506.624 621.5 506.274 621.5 505.924 621.726L505.543 622.006C504.337 620.505 503.87 618.39 503.434 616.462L503.309 615.918C502.516 612.443 505.091 608.913 506.702 607.117C510.655 602.7 515.744 597.872 520.428 594.109C520.786 594.389 521.144 594.661 521.502 594.918L521.495 594.91Z" fill="#1E0F3C"/>
<path d="M533.828 651.107L533.805 651.131C533.805 651.131 533.782 651.131 533.758 651.115C533.782 651.115 533.797 651.1 533.82 651.1L533.828 651.107Z" fill="#1E0F3C"/>
<path d="M534.661 651.084L534.163 651.737L534.653 651.084H534.661Z" fill="#1E0F3C"/>
<path d="M534.006 651.411L533.944 651.496C533.89 651.48 533.843 651.473 533.781 651.457C533.851 651.426 533.929 651.411 534.006 651.411Z" fill="#1E0F3C"/>
<path d="M569.646 639.484C569.405 639.251 569.156 639.01 568.914 638.761L568.72 638.566C568.634 638.473 568.541 638.388 568.455 638.294L568.261 638.551L568.23 638.598C563.359 645.136 558.62 650.05 552.869 654.536C550.885 656.076 548.27 656.931 545.516 656.931C544.761 656.931 543.991 656.869 543.228 656.744C540.038 656.208 537.197 654.591 535.377 652.282L536.98 650.151C538.497 651.247 540.536 651.714 542.395 652.126L542.94 652.25C543.415 652.351 543.882 652.406 544.349 652.406C547.352 652.406 550.185 650.439 552.037 648.783C556.48 644.825 561.382 639.647 565.164 634.943C565.187 634.92 565.195 634.897 565.218 634.881L565.374 634.687C565.327 634.625 565.273 634.547 565.226 634.485C564.954 634.119 564.689 633.762 564.425 633.412L564.176 633.062L563.911 633.404C560.16 638.108 555.243 643.317 550.745 647.337C549.694 648.27 546.971 650.454 544.341 650.454C544.006 650.454 543.687 650.423 543.376 650.353L542.746 650.213C540.816 649.778 538.816 649.319 537.633 648.169L537.548 648.083V648.068C537.244 647.764 537.011 647.407 536.84 647.01C536.816 646.963 536.801 646.909 536.723 646.808L536.684 646.746L536.661 646.722C535.921 645.797 535.011 644.647 535.33 643.581C536.022 641.226 535.509 639.499 533.758 638.31C533.182 637.913 532.529 637.711 531.813 637.711C530.28 637.711 528.801 638.644 527.914 639.204C526.226 640.269 523.37 644.367 522.646 646.746C522.226 648.083 521.253 651.224 523.588 653.868C524.195 654.56 525.432 655.003 526.724 655.003C527.051 655.003 527.377 654.979 527.696 654.917C528.957 654.692 529.86 654.031 530.233 653.067C530.256 652.997 530.513 652.81 531.369 652.81C531.992 652.81 532.793 652.911 533.525 653.082C535.618 655.99 539.026 658.019 542.893 658.665C543.757 658.812 544.637 658.882 545.5 658.882C548.683 658.882 551.718 657.887 554.044 656.076C559.896 651.527 564.713 646.544 569.662 639.919L569.84 639.686L569.623 639.492L569.646 639.484ZM528.723 652.468C528.506 653.036 527.805 653.238 527.408 653.308C526.35 653.494 525.16 653.183 524.802 652.779C523.284 651.069 523.619 649.094 524.195 647.22C524.794 645.261 527.455 641.404 528.786 640.565C529.766 639.95 530.848 639.328 531.805 639.328C532.171 639.328 532.521 639.422 532.84 639.639C533.976 640.417 534.256 641.451 533.766 643.115C533.213 644.981 534.458 646.559 535.377 647.71C535.377 647.71 535.377 647.715 535.377 647.725C535.626 648.044 535.952 648.464 536.046 648.674L535.984 648.759L533.999 651.403L533.937 651.488C533.883 651.473 533.836 651.465 533.774 651.45C532.365 651.139 529.408 650.711 528.731 652.46L528.723 652.468ZM534.163 651.729L534.653 651.076L534.155 651.729H534.163Z" fill="#1E0F3C"/>
<path d="M569.988 638.465C569.848 638.333 569.724 638.209 569.583 638.069C569.646 638.092 569.708 638.123 569.763 638.17C569.871 638.248 569.941 638.349 569.98 638.465H569.988Z" fill="#1E0F3C"/>
<path d="M569.973 637.913C569.872 637.836 569.786 637.797 569.716 637.773L569.381 638.318C569.521 638.45 569.638 638.574 569.778 638.699L570.307 638.364C570.245 638.178 570.128 638.022 569.981 637.913H569.973ZM569.591 638.069C569.654 638.092 569.716 638.123 569.77 638.17C569.879 638.248 569.949 638.349 569.988 638.465C569.848 638.333 569.724 638.209 569.584 638.069H569.591Z" fill="#1E0F3C"/>
<path d="M569.988 638.465C569.848 638.333 569.724 638.209 569.583 638.069C569.646 638.092 569.708 638.123 569.763 638.17C569.871 638.248 569.941 638.349 569.98 638.465H569.988Z" fill="#1E0F3C"/>
<path d="M516.942 625.147C516.094 623.911 514.95 623.289 513.526 623.289C512.958 623.289 512.328 623.39 511.667 623.584C511.526 623.631 511.371 623.646 511.207 623.646C510.274 623.646 509.301 622.869 508.515 622.255L508.367 622.146C508.321 622.122 508.282 622.099 508.235 622.083C507.846 621.92 507.496 621.702 507.192 621.399L507.146 621.353L507.083 621.329C506.889 621.259 506.702 621.22 506.515 621.22C506.243 621.22 505.986 621.298 505.722 621.469L505.605 621.563L505.348 621.749L505.091 621.944L502.967 623.545L502.695 623.747L502.438 623.942C502.119 624.198 501.979 624.595 502.088 624.984L502.158 625.287C502.158 625.287 502.181 625.357 502.181 625.388C502.593 627.153 502.477 628.56 502.197 628.669C501.232 629.042 500.578 629.952 500.345 631.211C500.057 632.805 500.5 634.531 501.395 635.324C502.531 636.319 503.877 636.825 505.41 636.825C506.718 636.825 507.893 636.452 508.523 636.257C510.92 635.519 515.013 632.657 516.071 630.978C516.888 629.687 518.421 627.269 516.966 625.147H516.942ZM502.671 633.863C502.383 633.606 502.072 632.556 502.251 631.553C502.313 631.219 502.469 630.651 502.889 630.496C504.827 629.742 504.484 626.78 504.111 625.147V625.116L506.585 623.257C506.788 623.39 507.083 623.615 507.293 623.778L507.402 623.879H507.426C508.383 624.634 509.675 625.613 511.2 625.613C511.542 625.613 511.892 625.559 512.219 625.466C512.717 625.318 513.145 625.248 513.511 625.248C514.289 625.248 514.849 625.567 515.332 626.259C516.001 627.238 515.199 628.677 514.398 629.944C513.604 631.196 509.791 633.816 507.916 634.399C507.208 634.617 506.274 634.866 505.364 634.866C504.313 634.866 503.434 634.539 502.663 633.863H502.671Z" fill="#1E0F3C"/>
<path d="M514.406 629.936C513.612 631.188 509.799 633.808 507.924 634.391C507.216 634.609 506.282 634.858 505.372 634.858C504.321 634.858 503.442 634.531 502.672 633.855C502.384 633.598 502.072 632.549 502.251 631.546C502.314 631.211 502.469 630.644 502.89 630.488C504.827 629.734 504.485 626.772 504.111 625.139V625.108L506.586 623.25C506.788 623.382 507.084 623.607 507.294 623.771L507.403 623.872H507.426C508.383 624.626 509.675 625.606 511.2 625.606C511.542 625.606 511.893 625.551 512.219 625.458C512.717 625.31 513.145 625.24 513.511 625.24C514.289 625.24 514.85 625.559 515.332 626.251C516.001 627.231 515.2 628.669 514.398 629.936H514.406Z" fill="white"/>
<path d="M514.406 629.936C513.612 631.188 509.799 633.808 507.924 634.391C507.216 634.609 506.282 634.858 505.372 634.858C504.321 634.858 503.442 634.531 502.672 633.855C502.384 633.598 502.072 632.549 502.251 631.546C502.314 631.211 502.469 630.644 502.89 630.488C504.827 629.734 504.485 626.772 504.111 625.139V625.108L506.586 623.25C506.788 623.382 507.084 623.607 507.294 623.771L507.403 623.872H507.426C508.383 624.626 509.675 625.606 511.2 625.606C511.542 625.606 511.893 625.551 512.219 625.458C512.717 625.31 513.145 625.24 513.511 625.24C514.289 625.24 514.85 625.559 515.332 626.251C516.001 627.231 515.2 628.669 514.398 629.936H514.406Z" fill="#E9E7EC"/>
<path d="M520.421 593.689L520.219 593.852C520.219 593.852 520.18 593.884 520.156 593.899C515.495 597.647 510.383 602.506 506.453 606.899C504.804 608.742 502.158 612.365 502.983 615.98L503.123 616.587C503.528 618.39 503.994 620.42 505.084 621.936L502.959 623.537C500.648 621.718 499.03 618.872 498.493 615.692C497.909 612.131 498.711 608.617 500.703 606.059C505.193 600.298 510.111 595.563 516.655 590.704L516.678 590.688L516.935 590.494L516.694 590.229C517.791 591.427 519.059 592.624 520.413 593.689H520.421Z" fill="white"/>
<path d="M520.164 593.899C515.503 597.647 510.391 602.506 506.461 606.899C504.811 608.742 502.166 612.365 502.991 615.98L503.131 616.587C503.535 618.39 504.002 620.42 505.092 621.936L502.967 623.537C500.656 621.718 499.038 618.872 498.501 615.692C497.917 612.132 498.719 608.617 500.711 606.059C505.201 600.298 510.118 595.563 516.663 590.704L516.686 590.688C517.744 591.823 518.942 592.92 520.164 593.891V593.899Z" fill="white"/>
<path d="M495.8 333.912C495.629 334.308 495.24 334.549 494.835 334.549C494.695 334.549 494.555 334.518 494.423 334.464L485.739 330.771L487.988 335.988C488.221 336.516 487.972 337.131 487.443 337.364C487.311 337.418 487.171 337.449 487.031 337.449C486.626 337.449 486.237 337.216 486.066 336.82L483.552 330.988L478.035 343.452C477.864 343.84 477.475 344.074 477.071 344.074C476.931 344.074 476.783 344.043 476.65 343.98C476.121 343.747 475.88 343.125 476.113 342.597L481.389 330.685L476.518 333.041C476.37 333.111 476.215 333.142 476.067 333.142C475.678 333.142 475.304 332.924 475.125 332.551C474.876 332.03 475.094 331.408 475.615 331.152L480.782 328.648L470.565 324.302C470.028 324.077 469.779 323.462 470.005 322.926C470.238 322.397 470.845 322.148 471.382 322.374L481.747 326.782L479.226 320.928C479 320.399 479.249 319.777 479.778 319.551C480.308 319.318 480.922 319.567 481.156 320.096L483.584 325.725L487.194 317.569C487.435 317.04 488.05 316.799 488.579 317.032C489.108 317.273 489.35 317.888 489.116 318.416L485.622 326.308L490.758 323.828C491.279 323.579 491.902 323.797 492.159 324.31C492.408 324.831 492.19 325.46 491.668 325.717L485.848 328.532L495.256 332.528C495.793 332.753 496.042 333.368 495.816 333.904L495.8 333.912Z" fill="#1E0F3C"/>
<path d="M423.807 329.651C423.838 330.234 423.379 330.724 422.803 330.748L412.578 331.191L419.325 337.03C419.768 337.411 419.815 338.072 419.434 338.507C419.223 338.748 418.928 338.872 418.64 338.872C418.399 338.872 418.15 338.787 417.955 338.624L411.932 333.407V354.259C411.932 354.842 411.465 355.309 410.882 355.309C410.298 355.309 409.831 354.842 409.831 354.259V332.497L404.594 338.173C404.384 338.398 404.104 338.507 403.824 338.507C403.567 338.507 403.31 338.414 403.108 338.227C402.68 337.838 402.657 337.17 403.046 336.742L407.995 331.385L399.412 331.751H399.365C398.805 331.751 398.346 331.307 398.315 330.748C398.291 330.164 398.743 329.675 399.319 329.659L407.201 329.325L402.579 325.321C402.135 324.94 402.097 324.279 402.478 323.836C402.859 323.4 403.521 323.354 403.956 323.735L409.831 328.819V315.711C409.831 315.128 410.306 314.661 410.882 314.661C411.458 314.661 411.932 315.128 411.932 315.711V327.14L415.504 323.268C415.901 322.84 416.57 322.817 416.99 323.206C417.418 323.595 417.442 324.263 417.052 324.691L412.998 329.076L422.71 328.664C423.293 328.641 423.783 329.084 423.799 329.667L423.807 329.651Z" fill="#1E0F3C"/>
<path d="M413.372 409.904C413.208 410.332 412.812 410.589 412.384 410.589C412.267 410.589 412.142 410.573 412.018 410.526L401.637 406.701L405.653 413.566C405.948 414.064 405.777 414.709 405.271 414.997C405.108 415.098 404.921 415.145 404.75 415.145C404.384 415.145 404.034 414.958 403.84 414.624L399.84 407.79L394.012 425.027C393.864 425.47 393.459 425.742 393.016 425.742C392.907 425.742 392.79 425.726 392.681 425.695C392.136 425.509 391.841 424.91 392.027 424.358L397.723 407.51L391.249 412.47C391.062 412.618 390.837 412.688 390.611 412.688C390.3 412.688 389.981 412.548 389.779 412.276C389.421 411.817 389.514 411.156 389.965 410.806L397.365 405.131L385.398 400.73C384.853 400.536 384.581 399.937 384.775 399.385C384.977 398.841 385.577 398.561 386.121 398.763L396.867 402.72L393.171 396.407C392.876 395.902 393.047 395.264 393.553 394.969C394.051 394.681 394.689 394.852 394.984 395.35L399.319 402.767L403.824 389.441C404.003 388.889 404.602 388.593 405.155 388.78C405.699 388.959 406.003 389.557 405.808 390.109L401.902 401.655L406.937 397.799C407.396 397.449 408.057 397.534 408.407 397.993C408.765 398.452 408.672 399.113 408.22 399.463L401.661 404.485L412.741 408.567C413.286 408.761 413.558 409.368 413.364 409.912L413.372 409.904Z" fill="#1E0F3C"/>
<path d="M421.107 148.821C405.497 148.821 392.798 136.132 392.798 120.535C392.798 104.939 405.497 92.25 421.107 92.25C436.716 92.25 449.415 104.939 449.415 120.535C449.415 136.132 436.716 148.821 421.107 148.821ZM421.107 94.046C406.493 94.046 394.603 105.926 394.603 120.528C394.603 135.129 406.493 147.009 421.107 147.009C435.72 147.009 447.61 135.129 447.61 120.528C447.61 105.926 435.72 94.046 421.107 94.046Z" fill="#B8B4C2"/>
<path d="M421.107 140.859C409.886 140.859 400.758 131.739 400.758 120.528C400.758 109.316 409.886 100.204 421.107 100.204C432.327 100.204 441.447 109.324 441.447 120.528C441.447 131.731 432.32 140.859 421.107 140.859ZM421.107 102.008C410.882 102.008 402.571 110.319 402.571 120.528C402.571 130.736 410.89 139.048 421.107 139.048C431.324 139.048 439.642 130.736 439.642 120.528C439.642 110.319 431.324 102.008 421.107 102.008Z" fill="#B8B4C2"/>
<path d="M421.106 124.205C423.135 124.205 424.779 122.562 424.779 120.535C424.779 118.508 423.135 116.865 421.106 116.865C419.078 116.865 417.434 118.508 417.434 120.535C417.434 122.562 419.078 124.205 421.106 124.205Z" fill="#B8B4C2"/>
<path d="M420.448 106.802L420.292 117.686L422.098 117.711L422.253 106.828L420.448 106.802Z" fill="#B8B4C2"/>
<path d="M420.383 104.527L418.725 106.533C418.033 107.372 418.632 108.64 419.721 108.64H423.036C424.126 108.64 424.725 107.372 424.032 106.533L422.375 104.527C421.861 103.905 420.896 103.905 420.383 104.527Z" fill="#B8B4C2"/>
<path d="M424.25 121.255L423.63 122.949L433.862 126.686L434.481 124.992L424.25 121.255Z" fill="#B8B4C2"/>
<path d="M436.646 125.628L435.292 123.404C434.724 122.471 433.331 122.619 432.973 123.645L431.884 126.771C431.526 127.797 432.53 128.785 433.549 128.404L435.993 127.502C436.755 127.222 437.066 126.312 436.646 125.62V125.628Z" fill="#B8B4C2"/>
<path d="M421.099 136.661C420.601 136.661 420.196 136.249 420.204 135.751L420.22 132.33C420.22 131.832 420.624 131.436 421.122 131.436C421.62 131.436 422.025 131.848 422.017 132.345L422.002 135.766C422.002 136.264 421.597 136.661 421.099 136.661Z" fill="#B8B4C2"/>
<path d="M410.322 132.198C410.088 132.198 409.855 132.112 409.676 131.934C409.326 131.576 409.326 131.008 409.676 130.658L412.111 128.248C412.469 127.898 413.037 127.898 413.387 128.248C413.738 128.598 413.738 129.173 413.387 129.523L410.952 131.934C410.773 132.105 410.547 132.198 410.314 132.198H410.322Z" fill="#B8B4C2"/>
<path d="M409.294 121.445L405.871 121.43C405.373 121.43 404.968 121.017 404.976 120.52C404.983 120.022 405.396 119.649 405.886 119.626L409.31 119.641C409.808 119.641 410.213 120.053 410.205 120.551C410.205 121.049 409.8 121.445 409.302 121.445H409.294Z" fill="#B8B4C2"/>
<path d="M412.749 113.095C412.516 113.095 412.283 113.009 412.104 112.83L409.691 110.397C409.341 110.039 409.341 109.472 409.691 109.122C410.041 108.772 410.617 108.772 410.967 109.122L413.38 111.555C413.73 111.913 413.73 112.481 413.38 112.83C413.201 113.001 412.975 113.095 412.742 113.095H412.749Z" fill="#B8B4C2"/>
<path d="M421.099 109.635C420.601 109.635 420.196 109.223 420.204 108.725L420.22 105.304C420.22 104.807 420.624 104.41 421.122 104.41C421.62 104.41 422.025 104.822 422.017 105.32L422.002 108.741C422.002 109.238 421.597 109.635 421.099 109.635Z" fill="#B8B4C2"/>
<path d="M429.456 113.079C429.222 113.079 428.989 112.994 428.81 112.815C428.46 112.457 428.46 111.89 428.81 111.54L431.246 109.13C431.604 108.78 432.172 108.78 432.522 109.13C432.872 109.487 432.872 110.055 432.522 110.405L430.086 112.815C429.907 112.986 429.682 113.079 429.448 113.079H429.456Z" fill="#B8B4C2"/>
<path d="M436.351 121.445L432.927 121.43C432.429 121.43 432.024 121.017 432.032 120.52C432.032 120.022 432.436 119.626 432.934 119.626L436.358 119.641C436.856 119.641 437.261 120.053 437.253 120.551C437.253 121.049 436.849 121.445 436.351 121.445Z" fill="#B8B4C2"/>
<path d="M431.876 132.206C431.642 132.206 431.409 132.12 431.23 131.941L428.818 129.508C428.468 129.15 428.468 128.582 428.818 128.233C429.168 127.883 429.744 127.883 430.094 128.233L432.506 130.666C432.856 131.024 432.856 131.591 432.506 131.941C432.327 132.112 432.102 132.206 431.868 132.206H431.876Z" fill="#B8B4C2"/>
<path d="M519.199 116.998C518.965 116.998 518.724 116.998 518.491 116.99C516.11 116.92 513.394 116.57 511.036 116.026L511.13 115.63L510.842 115.917C508.873 113.95 506.998 111.734 505.83 109.985C502.609 105.149 501.426 99.7453 502.586 95.1425C503.978 89.6067 509.099 85.5326 514.219 85.8591C517.051 86.0457 519.79 87.8184 521.37 90.493C522.164 91.8459 522.576 93.2765 522.592 94.6682C523.782 93.9451 525.214 93.533 526.786 93.4864C529.867 93.4242 532.847 94.7848 534.513 97.0862C537.516 101.254 536.769 107.746 532.809 111.859C529.657 115.14 524.724 116.99 519.207 116.99L519.199 116.998ZM511.83 114.354C513.962 114.821 516.436 115.124 518.537 115.186C523.821 115.326 528.56 113.67 531.501 110.622C535.267 106.704 535.244 101.207 533.042 98.1514C531.727 96.3243 529.346 95.2513 526.825 95.298C524.669 95.3524 522.864 96.2698 521.876 97.8171L521.113 97.3272L520.296 96.9463C521.082 95.2824 520.903 93.2687 519.806 91.4183C518.53 89.249 516.335 87.8107 514.094 87.6707C510.336 87.4219 505.659 90.322 504.329 95.5934C503.294 99.6986 504.391 104.581 507.324 108.997C508.375 110.568 510.04 112.558 511.822 114.37L511.83 114.354Z" fill="#B8B4C2"/>
<path d="M421.083 271.082L420.974 270.693L420.865 271.082C418.188 270.32 415.473 269.286 413.605 268.314C408.446 265.648 404.789 261.488 403.567 256.908C402.104 251.388 404.594 245.347 409.24 243.162C411.808 241.949 415.068 242.175 417.745 243.753C419.099 244.546 420.149 245.604 420.842 246.817C421.527 245.604 422.585 244.554 423.939 243.753C426.616 242.175 429.876 241.949 432.444 243.162C437.089 245.355 439.587 251.388 438.117 256.908C436.903 261.488 433.238 265.648 428.079 268.314C426.001 269.387 423.386 270.421 421.091 271.082H421.083ZM412.804 244.189C411.815 244.189 410.858 244.391 410.002 244.795C406.594 246.397 403.91 251.194 405.302 256.45C406.392 260.539 409.714 264.287 414.422 266.72C416.103 267.591 418.523 268.524 420.966 269.24C423.06 268.61 425.371 267.685 427.238 266.72C431.946 264.287 435.276 260.539 436.358 256.45C437.751 251.194 435.066 246.397 431.658 244.795C429.619 243.839 427.013 244.033 424.841 245.308C422.99 246.397 421.853 248.076 421.729 249.911L420.826 249.849L419.924 249.911C419.807 248.076 418.671 246.404 416.819 245.308C415.558 244.57 414.158 244.189 412.804 244.189Z" fill="#B8B4C2"/>
<path d="M299.164 279.783C295.382 279.783 291.733 278.842 288.776 277.015C283.523 273.765 280.193 267.669 280.278 261.504L280.325 257.966L281.975 261.092C282.994 263.02 285.173 266.355 288.286 266.977C290.511 267.428 293.39 266.433 294.573 263.23C294.456 262.382 294.402 261.527 294.402 260.695C294.402 250.199 302.946 241.662 313.451 241.662C323.956 241.662 332.499 250.199 332.499 260.695C332.499 271.191 323.956 279.728 313.451 279.728C311.147 279.728 308.891 279.316 306.743 278.507C306.743 278.507 306.735 278.507 306.727 278.507C304.269 279.363 301.685 279.783 299.164 279.783ZM282.449 265.072C283.383 269.31 286.021 273.182 289.733 275.475C294.207 278.251 300.495 278.756 306.136 276.805C306.152 276.805 306.175 276.781 306.198 276.774L306.689 276.54L307.054 276.688C309.101 277.504 311.256 277.924 313.458 277.924C322.967 277.924 330.702 270.196 330.702 260.695C330.702 251.194 322.967 243.466 313.458 243.466C303.95 243.466 296.215 251.194 296.215 260.695C296.215 261.519 296.277 262.359 296.394 263.191L296.425 263.401L296.355 263.603C295.102 267.312 291.561 269.473 287.928 268.742C285.624 268.283 283.796 266.721 282.442 265.072H282.449Z" fill="#B8B4C2"/>
<path d="M307.684 258.93C309.189 258.93 310.408 257.712 310.408 256.209C310.408 254.706 309.189 253.488 307.684 253.488C306.18 253.488 304.961 254.706 304.961 256.209C304.961 257.712 306.18 258.93 307.684 258.93Z" fill="#B8B4C2"/>
<path d="M314.011 263.074C315.515 263.074 316.735 261.856 316.735 260.353C316.735 258.85 315.515 257.632 314.011 257.632C312.507 257.632 311.288 258.85 311.288 260.353C311.288 261.856 312.507 263.074 314.011 263.074Z" fill="#B8B4C2"/>
<path d="M320.921 267.607C322.425 267.607 323.644 266.389 323.644 264.886C323.644 263.383 322.425 262.165 320.921 262.165C319.417 262.165 318.197 263.383 318.197 264.886C318.197 266.389 319.417 267.607 320.921 267.607Z" fill="#B8B4C2"/>
<path d="M388.557 486.954C387.226 486.954 385.896 486.807 384.604 486.503C378.955 485.182 373.687 480.727 370.854 474.88C370.854 474.88 370.854 474.864 370.846 474.857C368.753 473.908 366.87 472.61 365.244 470.977C361.649 467.385 359.665 462.603 359.665 457.518C359.665 452.434 361.649 447.652 365.244 444.06C368.839 440.468 373.624 438.485 378.713 438.485C383.802 438.485 388.588 440.468 392.183 444.06C399.607 451.477 399.607 463.552 392.183 470.977C391.592 471.568 390.954 472.128 390.269 472.648C388.837 475.751 390.175 478.487 392.059 479.747C394.704 481.504 398.603 480.688 400.688 480.042L404.065 479.001L401.599 481.535C398.221 485.003 393.389 486.954 388.565 486.954H388.557ZM378.698 440.305C374.091 440.305 369.765 442.093 366.504 445.351C359.781 452.068 359.781 462.992 366.504 469.71C368.061 471.265 369.882 472.493 371.905 473.364L372.263 473.519L372.442 474.032C372.442 474.032 372.457 474.079 372.465 474.11C375.064 479.475 379.873 483.557 385.001 484.754C389.242 485.749 393.856 484.886 397.513 482.538C395.389 482.748 392.992 482.554 391.039 481.255C387.958 479.211 386.985 475.175 388.72 471.669L388.814 471.474L388.985 471.342C389.662 470.837 390.3 470.285 390.884 469.71C397.607 462.992 397.607 452.068 390.884 445.351C387.631 442.093 383.297 440.305 378.69 440.305H378.698Z" fill="#B8B4C2"/>
<path d="M385.95 461.149C387.454 461.149 388.674 459.931 388.674 458.428C388.674 456.925 387.454 455.707 385.95 455.707C384.446 455.707 383.227 456.925 383.227 458.428C383.227 459.931 384.446 461.149 385.95 461.149Z" fill="#B8B4C2"/>
<path d="M378.55 459.618C380.054 459.618 381.274 458.399 381.274 456.896C381.274 455.394 380.054 454.175 378.55 454.175C377.046 454.175 375.827 455.394 375.827 456.896C375.827 458.399 377.046 459.618 378.55 459.618Z" fill="#B8B4C2"/>
<path d="M370.457 457.938C371.962 457.938 373.181 456.72 373.181 455.217C373.181 453.714 371.962 452.496 370.457 452.496C368.953 452.496 367.734 453.714 367.734 455.217C367.734 456.72 368.953 457.938 370.457 457.938Z" fill="#B8B4C2"/>
</g>
<defs>
<linearGradient id="paint0_linear_133_4603" x1="395.708" y1="380.919" x2="492.999" y2="380.919" gradientUnits="userSpaceOnUse">
<stop stop-color="#F79A29"/>
<stop offset="1" stop-color="#FF0F7B"/>
</linearGradient>
<clipPath id="clip0_133_4603">
<rect width="700" height="658.883" fill="white"/>
</clipPath>
</defs>
</svg>
