<svg width="250" height="209" viewBox="0 0 250 209" fill="none" xmlns="http://www.w3.org/2000/svg">
<g clip-path="url(#clip0_70_2713)">
<path d="M50.9163 56.2515C50.8705 56.3924 50.8319 56.5334 50.7897 56.6743C50.7088 56.9527 50.867 57.2451 51.1483 57.3261C51.4296 57.4072 51.7215 57.2486 51.8023 56.9667C51.8551 56.787 51.9078 56.6073 51.9641 56.4312L50.9163 56.2515Z" fill="#685E7C"/>
<path d="M173.09 82.9873C173.09 82.9873 173.079 82.9768 173.075 82.9697C172.801 82.4553 172.495 81.9585 172.161 81.4723C171.659 80.7464 171.099 80.0699 170.491 79.4569C170.491 79.4533 170.491 79.4498 170.484 79.4498C168.336 77.2723 165.579 75.8101 162.51 75.2569L148.579 72.8857L140.481 71.5045L138.569 71.1803L137.517 71.0006L95.4757 63.841L94.4138 63.6613L86.4745 62.3083L83.7215 61.8397L82.6596 61.66L78.5212 60.9553L51.9643 56.4313C51.908 56.6074 51.8553 56.7871 51.8025 56.9668C51.7217 57.2487 51.4298 57.4072 51.1485 57.3262C50.8672 57.2452 50.709 56.9527 50.7899 56.6744C50.8321 56.5334 50.8708 56.3925 50.9165 56.2516L46.5636 55.5116C37.478 53.8697 32.2778 57.4671 29.1801 67.5442L0.629565 137.889C0.622532 137.914 0.611984 137.939 0.608468 137.967C0.604952 137.97 0.601436 137.978 0.604952 137.985C0.604952 137.985 0.601436 137.992 0.601436 137.995C0.105669 140.75 0.376407 143.53 1.36794 146.074C1.36794 146.078 1.37146 146.085 1.37146 146.092C1.7969 147.188 2.35244 148.238 3.03808 149.228C5.32001 152.522 8.74467 154.731 12.6827 155.443L128.073 176.309C128.717 176.425 129.346 176.482 129.965 176.482C138.657 176.482 144.722 165.665 145.425 164.35C148.895 157.878 153.994 145.838 158.962 133.453C159.092 133.126 159.222 132.798 159.356 132.47C160.242 130.247 161.124 128.02 161.993 125.815C168.705 108.744 174.468 93.0855 174.573 92.793C174.584 92.7649 174.591 92.7367 174.598 92.705C174.707 92.0989 174.781 91.4894 174.812 90.8834C174.974 88.1315 174.376 85.4185 173.09 82.9873ZM173.568 92.4724C173.216 93.4308 167.583 108.705 161.051 125.335C160.674 126.29 160.295 127.249 159.915 128.211C159.401 129.507 158.885 130.807 158.364 132.104C158.234 132.432 158.104 132.759 157.974 133.087C153.02 145.426 147.946 157.416 144.497 163.85C143.78 165.189 137.222 176.89 128.263 175.269L12.869 154.404C9.20879 153.741 6.02322 151.691 3.90303 148.625C1.80042 145.588 0.99172 141.913 1.6211 138.273C1.62461 138.266 1.62461 138.259 1.62461 138.252C1.63165 138.238 1.63516 138.224 1.63516 138.214C1.63868 138.207 1.63868 138.199 1.64219 138.196L30.1646 67.9212C30.1646 67.9212 30.1751 67.893 30.1787 67.8789C33.1251 58.2881 37.8156 55.0043 46.3807 56.5546L82.2658 62.6642L83.3277 62.8439L94.0165 64.6655L95.0819 64.8452L147.777 73.8194H147.795L147.805 73.8229L162.327 76.2963C165.185 76.8143 167.752 78.1779 169.742 80.2074C169.763 80.2285 169.784 80.2496 169.806 80.2673C170.347 80.8204 170.846 81.4265 171.293 82.0748C173.406 85.1261 174.215 88.8151 173.568 92.4724Z" fill="#685E7C"/>
<path d="M111.702 97.4017C108.773 93.4696 104.431 90.8376 99.4166 89.8545L98.9595 90.8446C103.829 91.736 108.038 94.2482 110.858 98.0324C114.24 102.574 115.264 108.363 113.783 114.452H113.78C113.699 114.793 113.608 115.135 113.509 115.48C113.491 115.537 113.477 115.593 113.46 115.65C111.649 121.78 107.627 127.294 102.131 131.181C96.7831 134.958 90.6475 136.815 84.8601 136.413C82.6028 136.255 80.4474 135.892 78.4327 135.346L77.9826 136.318C80.1099 136.913 82.3953 137.301 84.7862 137.467C85.3312 137.505 85.8797 137.523 86.4283 137.523C91.9626 137.523 97.6938 135.606 102.739 132.044C108.425 128.024 112.595 122.309 114.472 115.949C114.479 115.924 114.487 115.896 114.494 115.872C114.596 115.53 114.687 115.188 114.771 114.846C116.378 108.391 115.306 102.236 111.702 97.4017ZM94.902 89.4211C91.4562 89.4211 88.0703 89.8686 84.8741 90.7213C84.4417 90.834 84.0162 90.9574 83.5978 91.0877C80.3911 92.0672 77.399 93.466 74.7619 95.2454C74.34 95.5308 73.9286 95.8232 73.5278 96.1262C73.243 96.3412 72.9617 96.5596 72.6839 96.7886C67.3711 101.101 63.9043 107.081 62.6104 114.226C61.6118 119.744 62.7088 124.758 65.7889 128.725C68.3416 132.019 72.2374 134.532 76.9595 136.019L77.406 135.05C72.8316 133.633 69.0694 131.234 66.6187 128.077C63.732 124.352 62.7053 119.631 63.6476 114.416C65.0083 106.926 68.5982 101.482 73.2359 97.6977C73.5067 97.4722 73.7844 97.2572 74.0657 97.0458C76.8223 94.9635 79.9094 93.4308 83.088 92.3773C83.5169 92.2293 83.9494 92.0954 84.3819 91.9721C87.9156 90.9397 91.5301 90.4782 94.902 90.4782C95.9111 90.4782 96.9062 90.5451 97.8766 90.672L98.3372 89.6713C97.2191 89.5057 96.0728 89.4211 94.902 89.4211Z" fill="#685E7C"/>
<path d="M87.0339 102.017L86.4362 103.064L86.176 103.522L85.9053 103.998L85.6486 104.449L84.8891 105.78L80.3956 104.198C77.1643 103.057 73.3002 104.294 71.7847 106.95L71.4577 107.525C70.7615 108.744 70.6385 110.114 71.1096 111.386C71.6546 112.852 72.9485 114.036 74.6574 114.638L78.9681 116.16L77.0483 119.525C76.3591 120.737 76.2361 122.101 76.7037 123.362C77.2452 124.818 78.5286 125.994 80.2268 126.593L81.0144 126.868C81.0636 126.886 81.1094 126.903 81.1586 126.917L81.6051 125.952C81.5242 125.927 81.4434 125.899 81.3625 125.871L80.5749 125.596C79.1755 125.103 78.1242 124.152 77.6917 122.992C77.3331 122.03 77.4315 120.984 77.966 120.05L80.1987 116.132C80.276 115.995 80.2901 115.833 80.2338 115.685C80.1811 115.54 80.0651 115.424 79.9174 115.371L75.009 113.641C73.5955 113.144 72.5336 112.186 72.1012 111.016C71.739 110.047 71.8375 108.99 72.3754 108.049L72.7024 107.475C73.6482 105.816 75.7087 104.822 77.8429 104.822C78.5813 104.822 79.3302 104.942 80.044 105.196L84.9524 106.926C85.1915 107.01 85.4587 106.908 85.5853 106.686L86.6401 104.84L86.7562 104.635L87.1675 103.913L87.2801 103.716L87.9516 102.542C88.9713 100.752 91.2954 99.7483 93.602 99.935H93.6055L94.0696 98.9273C91.2497 98.5609 88.3068 99.7835 87.0339 102.017ZM105.353 114.998C105.082 114.265 104.621 113.602 104.017 113.046C103.412 112.489 102.663 112.045 101.808 111.742L97.4978 110.223L98.0006 109.339L98.5315 108.412L99.5476 106.63C100.237 105.417 100.36 104.054 99.8922 102.793C99.3507 101.337 98.0674 100.161 96.3691 99.5616L95.585 99.2832C95.4338 99.2303 95.2826 99.1845 95.1315 99.1423L94.6849 100.115C94.8713 100.161 95.0541 100.217 95.2334 100.28L96.021 100.559C97.4204 101.052 98.4717 102 98.9042 103.162C99.2628 104.124 99.1644 105.171 98.63 106.105L97.54 108.018L97.009 108.948L96.2671 110.252C96.1898 110.386 96.1757 110.551 96.2285 110.696C96.2847 110.844 96.4008 110.96 96.5484 111.009L101.457 112.739C102.87 113.24 103.932 114.194 104.365 115.368C104.727 116.337 104.628 117.39 104.09 118.334L103.763 118.909C102.487 121.143 99.196 122.164 96.4219 121.188L91.5134 119.458C91.2708 119.374 91.0071 119.472 90.8805 119.694L88.6478 123.612C87.5754 125.487 85.072 126.502 82.6599 126.181L82.1993 127.178C82.6353 127.256 83.0784 127.291 83.5179 127.291C86.0108 127.291 88.4368 126.107 89.562 124.134L91.5767 120.603L96.0702 122.185C99.3015 123.324 103.166 122.09 104.681 119.434L105.008 118.859C105.704 117.64 105.827 116.266 105.353 114.998Z" fill="#685E7C"/>
<path d="M202.561 149.598C201.415 156.532 200.092 163.547 198.732 170.724C198.507 171.901 197.789 172.933 196.763 173.561C178.099 184.902 159.855 196.974 143.761 207.625C143.058 208.09 142.25 208.333 141.423 208.333C141.177 208.333 140.928 208.312 140.678 208.266C94.6208 200.141 49.7662 191.072 6.38492 182.302C4.86949 181.996 3.64239 180.903 3.1853 179.452C1.04049 172.662 1.71558 166.158 5.03827 161.591C5.30549 161.806 5.59381 162.007 5.90322 162.194C5.8997 162.194 5.8997 162.198 5.8997 162.198C2.76688 166.489 2.14454 172.662 4.19089 179.135C4.53195 180.22 5.45316 181.037 6.59589 181.266C49.9667 190.036 94.8177 199.102 140.861 207.227C141.673 207.368 142.496 207.199 143.181 206.744C159.281 196.089 177.533 184.011 196.214 172.655C196.988 172.186 197.526 171.411 197.695 170.527C199.055 163.357 200.374 156.349 201.52 149.425C201.727 148.164 201.193 146.945 200.121 146.243C199.041 145.535 197.702 145.535 196.626 146.24C186.084 153.135 176.278 159.439 165.892 166.109C161.957 168.635 157.984 171.186 153.919 173.804C154.151 173.247 154.391 172.676 154.63 172.095C158.251 169.759 161.802 167.479 165.322 165.217C167.741 163.663 170.125 162.131 172.495 160.605C173.096 160.221 173.694 159.837 174.292 159.449C181.485 154.823 188.584 150.239 196.049 145.356C196.467 145.081 196.917 144.887 197.378 144.774C197.804 144.668 198.24 144.633 198.672 144.661C199.375 144.714 200.071 144.947 200.697 145.356C202.125 146.289 202.839 147.917 202.561 149.598Z" fill="#685E7C"/>
<path d="M198.672 144.662C198.24 144.633 197.804 144.669 197.378 144.774C194.734 143.213 190.479 140.979 187.719 139.538C187.466 139.408 187.364 139.091 187.494 138.834L187.575 138.665C187.705 138.404 188.531 138.636 188.563 138.788C191.397 140.282 195.711 142.562 198.408 144.158C198.588 144.263 198.686 144.464 198.672 144.662Z" fill="#685E7C"/>
<path d="M149.961 68.8867C149.384 70.3383 148.969 71.5363 148.579 72.8858L140.481 71.5046C141.047 69.4927 141.796 67.5936 142.461 65.9129C143.122 64.2428 144.346 61.1492 144.078 60.3776C143.997 60.2226 143.498 59.8279 140.868 59.2959C140.552 59.2289 140.207 59.162 139.827 59.0951C139.578 59.0493 139.311 59.0035 139.029 58.9576L138.952 58.9435C138.502 58.8696 138.062 58.7956 137.647 58.7216C136.216 58.4573 134.838 58.2072 133.502 57.9676C133.632 57.6716 133.727 57.3545 133.783 57.0198L133.794 56.9528C135.098 57.1854 136.441 57.425 137.837 57.6822C138.249 57.7562 138.681 57.8266 139.124 57.9006L139.202 57.9147C139.539 57.9711 139.863 58.0239 140.165 58.0803C140.541 58.1473 140.886 58.2142 141.213 58.2811C143.737 58.8026 144.831 59.317 145.077 60.0358C145.439 61.0928 144.592 63.3936 143.445 66.2934C142.837 67.8367 142.155 69.5561 141.617 71.3601L147.542 72.6814C147.95 71.265 148.382 70.0177 148.98 68.4991C150.439 64.8101 151.817 61.3254 150.713 58.0979C149.595 54.8352 146.536 53.44 143.579 52.6965C143.224 52.6049 142.869 52.5239 142.521 52.4534C141.694 52.2807 140.896 52.1469 140.172 52.0271L140.116 52.0165C139.697 51.946 139.293 51.8791 138.906 51.8086C137.472 51.5443 136.093 51.2942 134.757 51.0581L134.799 50.7939C134.842 50.5261 134.859 50.2583 134.849 49.9976C136.213 50.2442 137.626 50.4979 139.096 50.7692C139.476 50.8397 139.877 50.9066 140.288 50.9736L140.344 50.9841C141.163 51.1215 142.074 51.2695 143.016 51.4739C143.365 51.5514 143.72 51.6324 144.075 51.7276C147.218 52.545 150.46 54.0988 151.712 57.7562C152.942 61.3501 151.494 65.0109 149.961 68.8867Z" fill="#685E7C"/>
<path d="M105.057 44.9168C104.931 45.2092 104.836 45.5228 104.783 45.854L104.769 45.9386C104.087 45.8188 103.391 45.6919 102.684 45.5651C102.336 45.5017 101.981 45.4382 101.626 45.3748C101.112 45.2797 100.592 45.1846 100.064 45.0894C97.3677 44.5926 93.7074 43.9232 90.4093 44.8815C89.9593 45.0119 89.5163 45.174 89.0838 45.3678C88.152 45.7906 87.266 46.3755 86.4608 47.1682C85.1493 48.4613 83.8624 50.29 82.7478 52.3547C82.5896 52.6472 82.4349 52.9431 82.2837 53.2462C82.2696 53.2779 82.252 53.3096 82.238 53.3413C81.4574 54.9057 80.7858 56.5688 80.283 58.2107C80.269 58.2424 80.2619 58.2741 80.2514 58.3058C80.1565 58.6159 80.0686 58.9224 79.9877 59.229C79.9877 59.229 79.9842 59.236 79.9842 59.2395C79.847 59.761 79.724 60.2789 79.6255 60.7863L82.79 61.3289L83.8554 61.5086L85.5009 61.7905C85.6029 61.3042 85.733 60.7969 85.8877 60.2789C85.9861 59.9442 86.0951 59.606 86.2147 59.2642C86.7878 57.6082 87.5719 55.9064 88.4263 54.4406C88.6197 54.1024 88.8201 53.7782 89.024 53.4681C89.5584 52.6542 90.107 51.9495 90.6379 51.4281C92.3467 49.7439 96.3374 50.4732 98.9815 50.9559C99.1222 50.9806 99.2593 51.0053 99.3964 51.0334C99.7516 51.0969 100.103 51.1603 100.451 51.2272C101.601 51.4351 102.719 51.636 103.806 51.8262L103.763 52.0799C103.718 52.3512 103.704 52.6225 103.714 52.8868C102.533 52.6754 101.316 52.4569 100.057 52.2279C99.7094 52.1645 99.3577 52.101 98.9991 52.0341C98.9358 52.0235 98.869 52.0094 98.8022 51.9989C96.5097 51.5796 92.6948 50.8819 91.3763 52.1821C90.9754 52.5767 90.564 53.0841 90.1562 53.669C89.9417 53.972 89.7307 54.2926 89.5233 54.6344C88.6583 56.0614 87.8496 57.7738 87.2589 59.4474C87.1394 59.7927 87.0304 60.1274 86.9284 60.4622C86.7386 61.0999 86.5838 61.72 86.4748 62.3084L83.7218 61.8398L82.6599 61.6601L78.5215 60.9554C78.634 60.3283 78.7782 59.687 78.9504 59.0352C78.9645 58.9858 78.9751 58.9365 78.9891 58.8872C79.0594 58.63 79.1333 58.3692 79.2106 58.1085C79.2106 58.1085 79.2118 58.1061 79.2141 58.1014C79.724 56.4032 80.4131 54.6767 81.2148 53.0418C81.359 52.7423 81.5066 52.4534 81.6613 52.1645C81.6613 52.1574 81.6684 52.1504 81.6719 52.1433C82.8744 49.8637 84.2843 47.8307 85.7224 46.4142C86.9073 45.248 88.2329 44.4869 89.6182 44.0113C90.0401 43.8668 90.4656 43.7505 90.8946 43.6554C94.1821 42.9331 97.6454 43.5673 100.254 44.0465C100.852 44.1557 101.443 44.2649 102.023 44.3706C102.378 44.4341 102.733 44.4975 103.081 44.5609C103.753 44.6807 104.41 44.8005 105.057 44.9168Z" fill="#685E7C"/>
<path d="M131.518 46.2134L109.353 42.5667C107.518 42.2636 105.763 43.2819 105.056 44.9168C104.93 45.2092 104.835 45.5228 104.782 45.854L104.768 45.9386L103.805 51.8262L103.763 52.0799C103.717 52.3512 103.703 52.6225 103.713 52.8868C103.787 54.7366 105.151 56.3503 107.043 56.6604L129.208 60.3071C129.426 60.3424 129.641 60.36 129.855 60.36C131.441 60.36 132.872 59.4051 133.498 57.9676C133.628 57.6716 133.723 57.3545 133.779 57.0198L133.79 56.9528L134.757 51.0581L134.799 50.7939C134.841 50.5261 134.859 50.2583 134.848 49.9976C134.781 48.1442 133.414 46.527 131.518 46.2134ZM133.758 50.6212L133.716 50.8714L132.753 56.7661L132.738 56.8471C132.686 57.1783 132.577 57.4954 132.415 57.7808C132.211 58.1614 131.919 58.4926 131.557 58.7533C130.924 59.2078 130.151 59.391 129.381 59.2642L107.215 55.6174C105.904 55.4025 104.937 54.3349 104.786 53.077C104.754 52.8093 104.758 52.5309 104.803 52.2526L104.842 52.0095L105.809 46.1218L105.823 46.0267C105.876 45.6955 105.985 45.3854 106.139 45.1071C106.716 44.0395 107.926 43.4017 109.181 43.6096L131.346 47.2563C132.661 47.4748 133.632 48.5459 133.776 49.8108C133.807 50.0751 133.804 50.3464 133.758 50.6212Z" fill="#685E7C"/>
<path d="M133.759 50.6211L133.717 50.8712L132.753 56.7659L132.739 56.847C132.686 57.1782 132.577 57.4953 132.416 57.7807C132.212 58.1612 131.92 58.4924 131.558 58.7531C130.925 59.2077 130.151 59.3909 129.381 59.264L107.216 55.6173C105.904 55.4024 104.938 54.3348 104.786 53.0769C104.755 52.8091 104.758 52.5308 104.804 52.2524L104.843 52.0093L105.81 46.1217L105.824 46.0265C105.876 45.6953 105.985 45.3853 106.14 45.1069C106.717 44.0393 107.926 43.4016 109.181 43.6095L131.347 47.2562C132.662 47.4747 133.632 48.5458 133.776 49.8107C133.808 50.0749 133.805 50.3462 133.759 50.6211Z" fill="#685E7C"/>
<path d="M140.865 59.2958C139.61 63.1294 138.829 67.1251 138.569 71.1807L137.518 71.001C137.792 66.9383 138.576 62.9391 139.824 59.095C140.204 59.1619 140.549 59.2289 140.865 59.2958Z" fill="#685E7C"/>
<path d="M150.643 42.2282C148.069 45.1244 145.868 48.3202 144.074 51.7273C143.719 51.6322 143.364 51.5511 143.016 51.4736C144.732 48.1722 146.824 45.0645 149.254 42.2176C135.133 39.4341 121.048 36.8303 107.113 34.3321C106.762 34.2687 106.407 34.2053 106.055 34.1419C102.49 33.5041 98.9351 32.8734 95.3909 32.2463C95.0393 32.1829 94.6842 32.123 94.3325 32.0595C86.6675 30.7065 79.0587 29.3817 71.5237 28.071C61.8897 36.0551 55.1388 45.8467 51.9638 56.4311L50.916 56.2514C54.1543 45.3464 61.1056 35.2764 71.0385 27.0985C71.1581 27.0034 71.3128 26.9611 71.464 26.9893C79.1466 28.3247 86.9066 29.6777 94.7263 31.0554C95.0779 31.1188 95.4331 31.1822 95.7882 31.2421C99.3289 31.8693 102.884 32.5 106.449 33.1377C106.804 33.2011 107.156 33.2645 107.511 33.328C121.677 35.8684 135.995 38.518 150.351 41.3579C150.537 41.3966 150.688 41.5305 150.752 41.7102C150.811 41.8899 150.769 42.0872 150.643 42.2282Z" fill="#685E7C"/>
<path d="M51.9641 56.4312C51.9078 56.6073 51.8551 56.787 51.8023 56.9667C51.7215 57.2486 51.4296 57.4072 51.1483 57.3261C50.867 57.2451 50.7088 56.9527 50.7897 56.6743C50.8319 56.5334 50.8705 56.3924 50.9163 56.2515L51.9641 56.4312Z" fill="#685E7C"/>
<path d="M249.986 96.9471C249.944 97.1338 249.807 97.2783 249.627 97.3346C233.661 102.19 218.278 110.569 205.135 121.565C192.491 132.153 181.855 145.218 174.292 159.449C173.694 159.837 173.096 160.221 172.495 160.605C180.167 145.616 191.222 131.836 204.46 120.755C217.469 109.867 232.659 101.524 248.446 96.5912C233.158 82.4658 215.384 72.2337 195.596 66.1699L195.986 65.1833C216.186 71.3846 234.297 81.902 249.835 96.4432C249.972 96.5701 250.032 96.7638 249.986 96.9471Z" fill="#685E7C"/>
<path d="M202.407 46.1428C202.407 46.1428 202.397 46.1569 202.393 46.164C202.4 46.1569 202.404 46.1499 202.411 46.1428H202.407ZM202.27 46.3824C202.27 46.3824 202.266 46.4 202.263 46.4106V46.4212C202.263 46.3965 202.273 46.3754 202.28 46.3542C202.277 46.3648 202.273 46.3754 202.27 46.3824Z" fill="#685E7C"/>
<path d="M181 100.315V100.337C181.025 101.668 180.919 102.916 180.67 104.033V104.043L180.666 104.047V104.057L180.663 104.061V104.068C180.561 104.526 180.43 104.959 180.279 105.368C171.922 127.77 161.707 154.9 154.63 172.091C154.39 172.676 154.151 173.247 153.919 173.804C153.423 175.005 152.942 176.147 152.481 177.228C150.632 181.573 144.331 187.094 139.612 187.348C139.296 187.362 138.951 187.372 138.582 187.372C129.254 187.372 103.502 182.034 76.2984 176.397C54.6182 171.905 32.2032 167.261 18.596 165.492L18.364 165.464C14.8444 165.006 9.27842 164.287 5.90298 162.194C5.59357 162.007 5.30525 161.806 5.03803 161.591C3.88827 160.675 3.13231 159.537 3.01628 158.11C2.99519 157.857 2.75258 156.955 2.47129 155.908C1.30044 151.557 -1.12566 142.526 0.600737 137.995C0.104971 140.75 0.375708 143.53 1.36724 146.074C1.36724 146.078 1.37076 146.085 1.37076 146.092C1.88059 149.636 2.86861 153.315 3.49095 155.633C3.86014 157.015 4.03946 157.691 4.06759 158.026C4.43326 162.592 13.5856 163.78 18.5011 164.417L18.7296 164.445C32.3755 166.218 54.8151 170.865 76.5128 175.365C102.507 180.748 129.359 186.312 138.596 186.315C138.941 186.315 139.261 186.305 139.556 186.291C143.846 186.058 149.816 180.801 151.511 176.813C151.989 175.692 152.485 174.505 153.009 173.258C153.016 173.236 153.026 173.219 153.033 173.198C157.646 162.078 163.743 146.286 169.812 130.254C173.057 121.678 176.296 113.035 179.291 104.998C179.442 104.596 179.566 104.167 179.66 103.712C180.065 101.841 180.033 99.5509 179.632 97.1303C179.566 96.7181 179.488 96.3058 179.397 95.8901C178.88 93.4483 178.008 90.9256 176.851 88.593C176.644 88.1773 176.426 87.765 176.201 87.3634C175.297 85.7461 174.253 84.2522 173.089 82.9873C173.085 82.9802 173.078 82.9767 173.075 82.9696C172.801 82.4552 172.495 81.9584 172.161 81.4722C171.658 80.7464 171.099 80.0699 170.491 79.4568C172.924 80.9225 175.033 83.3009 176.707 86.0844C176.939 86.4684 177.164 86.863 177.375 87.2612C177.484 87.462 177.589 87.6664 177.691 87.8707C177.713 87.9095 177.73 87.9518 177.751 87.9905C177.772 88.0222 177.786 88.054 177.804 88.0892C177.927 88.3394 178.05 88.593 178.166 88.8467C178.275 89.0722 178.377 89.3013 178.476 89.5303C178.479 89.5408 178.486 89.5514 178.49 89.562L178.5 89.5831C178.535 89.6677 178.57 89.7522 178.606 89.8403C178.697 90.0517 178.785 90.2632 178.869 90.4781C178.964 90.7106 179.052 90.9432 179.14 91.1757C179.144 91.1898 179.151 91.2039 179.154 91.218C179.196 91.3308 179.239 91.4435 179.277 91.5598C179.358 91.7782 179.432 91.9967 179.506 92.2151C179.566 92.3983 179.625 92.5851 179.682 92.7683C179.699 92.8141 179.713 92.8634 179.727 92.9128C179.787 93.1066 179.847 93.3003 179.9 93.4941C179.959 93.6879 180.012 93.8817 180.061 94.072C180.114 94.2658 180.167 94.4596 180.212 94.6533C180.258 94.8471 180.304 95.0374 180.346 95.2312C180.381 95.3756 180.413 95.5201 180.441 95.6646C180.459 95.7456 180.476 95.8266 180.49 95.9042C180.522 96.0627 180.554 96.2213 180.582 96.3798C180.61 96.5208 180.634 96.6652 180.659 96.8062C180.677 96.9119 180.694 97.0211 180.708 97.1268C180.715 97.1585 180.719 97.1902 180.722 97.2219C180.74 97.3206 180.754 97.4228 180.768 97.5214C180.772 97.5496 180.775 97.5778 180.779 97.606C180.814 97.8561 180.845 98.1063 180.874 98.3565C180.895 98.5679 180.916 98.7758 180.93 98.9836C180.937 99.04 180.94 99.0964 180.944 99.1528C180.954 99.2831 180.961 99.4135 180.968 99.5439C180.968 99.6002 180.975 99.6531 180.979 99.7095C180.979 99.7341 180.982 99.7623 180.982 99.787C180.99 99.9667 180.997 100.139 181 100.315Z" fill="#685E7C"/>
<path d="M183.74 43.7151L122.63 19.5162C120.13 18.5261 117.402 18.5719 114.937 19.6395C112.476 20.7107 110.574 22.6802 109.589 25.1819L106.449 33.1378C106.804 33.2012 107.156 33.2646 107.511 33.3281L110.57 25.5695C111.453 23.3286 113.151 21.5704 115.355 20.612C116.505 20.1117 117.718 19.8615 118.931 19.8615C120.049 19.8615 121.171 20.0729 122.24 20.4992L183.353 44.6982C187.966 46.5233 190.237 51.7732 188.412 56.396L176.707 86.0844C176.94 86.4685 177.165 86.8631 177.376 87.2612L189.393 56.7836C191.433 51.6182 188.894 45.7552 183.74 43.7151Z" fill="#685E7C"/>
<path d="M173.388 29.4982L142.176 17.138C141.424 16.8385 140.601 16.8526 139.859 17.1768C139.117 17.4974 138.544 18.0893 138.245 18.8433C137.95 19.5974 137.961 20.4218 138.284 21.1653C138.604 21.9123 139.198 22.483 139.951 22.7825L171.163 35.1427C171.521 35.2837 171.898 35.3541 172.274 35.3541C172.685 35.3541 173.093 35.2696 173.48 35.104C174.222 34.7798 174.795 34.1879 175.09 33.4339C175.706 31.88 174.939 30.1113 173.388 29.4982ZM174.109 33.0463C173.916 33.536 173.543 33.9236 173.058 34.135C172.576 34.3429 172.038 34.3535 171.55 34.1597L140.337 21.7995C139.845 21.6057 139.462 21.2322 139.251 20.746C139.043 20.2633 139.033 19.7242 139.226 19.2344C139.42 18.7412 139.792 18.3571 140.278 18.1457C140.763 17.9343 141.297 17.9273 141.786 18.121L172.998 30.4812C174.011 30.8794 174.51 32.0315 174.109 33.0463Z" fill="#685E7C"/>
<path d="M202.282 46.3542C202.274 46.377 202.266 46.3998 202.263 46.4264V46.415C202.263 46.415 202.263 46.396 202.27 46.3846C202.274 46.377 202.278 46.3656 202.282 46.3542Z" fill="#685E7C"/>
<path d="M202.413 46.1428C202.413 46.1428 202.401 46.1589 202.393 46.1669C202.397 46.1589 202.401 46.1508 202.409 46.1428H202.413Z" fill="#685E7C"/>
<path d="M204.752 50.1278L200.402 61.1561C200.392 61.1808 200.381 61.2054 200.367 61.2301C200.054 61.9806 199.471 62.5725 198.722 62.8967C198.317 63.0728 197.892 63.1574 197.466 63.1574C197.248 63.1574 197.03 63.1327 196.812 63.0869L197.21 62.0828C197.579 62.1321 197.952 62.0792 198.303 61.9277C198.817 61.7022 199.214 61.29 199.421 60.7685L203.771 49.7402C204.129 48.8276 203.809 47.8164 203.054 47.2632L203.257 46.7453C203.257 46.7453 203.261 46.7382 203.261 46.7347L203.279 46.6854C203.279 46.6854 203.282 46.6854 203.282 46.6818L203.447 46.259C204.741 47.0412 205.325 48.6726 204.752 50.1278Z" fill="#685E7C"/>
<path d="M203.556 37.958C202.491 35.4881 200.525 33.5854 198.029 32.5953L117.504 0.708292C115.004 -0.278268 112.272 -0.235987 109.811 0.835135C107.346 1.90626 105.447 3.87233 104.459 6.37396L94.7266 31.0556C95.0782 31.119 95.4333 31.1824 95.7884 31.2423L105.44 6.76154C106.326 4.52417 108.024 2.76245 110.229 1.80408C111.379 1.30727 112.592 1.05711 113.805 1.05711C114.923 1.05711 116.045 1.26852 117.113 1.69133L197.642 33.5784C199.875 34.4627 201.633 36.1681 202.589 38.3773C203.546 40.5865 203.584 43.0352 202.702 45.2761L202.294 46.312C202.294 46.312 202.29 46.3191 202.29 46.3226C202.287 46.3332 202.283 46.3437 202.28 46.3543C202.273 46.3755 202.266 46.3966 202.262 46.4213V46.4107C202.262 46.4107 202.262 46.3931 202.269 46.3825L196.011 62.2485L194.907 65.0461L194.682 65.6204L185.561 88.7517L185.174 89.7312L182.277 97.0846L181.887 98.0641L181.001 100.316V100.337C181.025 101.669 180.92 102.916 180.67 104.033L182.864 98.4693L183.251 97.4863L186.148 90.1364L186.535 89.1534L189.886 80.6549L190.272 79.6719L195.596 66.1701L195.986 65.1835L196.812 63.0871L197.21 62.0829L203.053 47.2634L203.257 46.7454C203.257 46.7454 203.261 46.7384 203.261 46.7348L203.278 46.6855C203.278 46.6855 203.282 46.6855 203.282 46.682L203.447 46.2592L203.683 45.6637C204.671 43.1621 204.625 40.4244 203.556 37.958ZM202.392 46.164C202.392 46.164 202.399 46.15 202.406 46.1429H202.41C202.41 46.1429 202.399 46.157 202.392 46.164Z" fill="#685E7C"/>
<path d="M131.389 11.8669C129.103 11.8669 127.243 13.7767 127.243 16.1269C127.243 18.4771 129.103 20.3904 131.389 20.3904C133.674 20.3904 135.531 18.4771 135.531 16.1269C135.531 13.7767 133.671 11.8669 131.389 11.8669ZM131.389 19.3333C129.683 19.3333 128.298 17.8957 128.298 16.1269C128.298 14.3581 129.683 12.924 131.389 12.924C133.094 12.924 134.476 14.3616 134.476 16.1269C134.476 17.8922 133.091 19.3333 131.389 19.3333Z" fill="#685E7C"/>
<path d="M202.589 38.3771C201.632 36.1679 199.874 34.4625 197.642 33.5781L117.113 1.6911C116.044 1.26829 114.923 1.05688 113.804 1.05688C112.591 1.05688 111.378 1.30705 110.229 1.80385C108.024 2.76222 106.326 4.52394 105.44 6.76132L95.7881 31.2421C99.3288 31.8693 102.884 32.5 106.449 33.1377L109.589 25.1818C110.573 22.6802 112.475 20.7106 114.937 19.6395C117.401 18.5719 120.13 18.5261 122.63 19.5161L183.739 43.715C188.894 45.7551 191.432 51.6181 189.393 56.7835L177.375 87.2611C177.484 87.462 177.59 87.6628 177.692 87.8707C177.713 87.9094 177.73 87.9517 177.751 87.9905C177.772 88.0222 177.786 88.0539 177.804 88.0891C177.927 88.3393 178.05 88.593 178.166 88.8467C178.275 89.0722 178.377 89.3012 178.476 89.5302C178.479 89.5408 178.486 89.5514 178.49 89.5619L178.5 89.5831C178.535 89.6676 178.571 89.7522 178.606 89.8403C178.697 90.0517 178.785 90.2631 178.869 90.478C178.964 90.7106 179.052 90.9431 179.14 91.1757C179.144 91.1897 179.151 91.2038 179.154 91.2179C179.196 91.3307 179.239 91.4434 179.277 91.5597C179.358 91.7782 179.432 91.9966 179.506 92.2151C179.566 92.3983 179.625 92.585 179.682 92.7682C179.699 92.814 179.713 92.8634 179.727 92.9127C179.787 93.1065 179.847 93.3003 179.9 93.4941C179.959 93.6879 180.012 93.8816 180.061 94.0719C180.114 94.2657 180.167 94.4595 180.213 94.6533C180.258 94.8471 180.304 95.0373 180.346 95.2311C180.381 95.3756 180.413 95.52 180.441 95.6645C180.459 95.7455 180.476 95.8266 180.49 95.9041C180.522 96.0627 180.554 96.2212 180.582 96.3798C180.61 96.5207 180.634 96.6652 180.659 96.8061C180.677 96.9118 180.694 97.021 180.708 97.1267C180.715 97.1584 180.719 97.1901 180.722 97.2219C180.74 97.3205 180.754 97.4227 180.768 97.5213C180.772 97.5495 180.775 97.5777 180.779 97.6059C180.814 97.8561 180.845 98.1062 180.874 98.3564C180.895 98.5678 180.916 98.7757 180.93 98.9836C180.937 99.0399 180.94 99.0963 180.944 99.1527C180.954 99.2831 180.965 99.4134 180.969 99.5438C180.969 99.6002 180.976 99.653 180.979 99.7094C180.979 99.7341 180.983 99.7622 180.983 99.7869C180.99 99.9666 180.997 100.139 181 100.315L181.886 98.064L182.276 97.0844L185.174 89.731L185.561 88.7515L194.681 65.6202L194.906 65.0459L196.01 62.2483L202.269 46.3823C202.269 46.3823 202.276 46.3647 202.279 46.3541C202.283 46.3435 202.286 46.333 202.29 46.3224C202.29 46.3189 202.294 46.3153 202.294 46.3118L202.701 45.2759C203.584 43.035 203.545 40.5862 202.589 38.3771ZM131.388 20.3899C129.103 20.3899 127.243 18.4767 127.243 16.1266C127.243 13.7765 129.103 11.8668 131.388 11.8668C133.674 11.8668 135.53 13.7765 135.53 16.1266C135.53 18.4767 133.67 20.3899 131.388 20.3899ZM175.09 33.4337C174.794 34.1877 174.221 34.7796 173.479 35.1038C173.093 35.2694 172.685 35.354 172.273 35.354C171.897 35.354 171.521 35.2835 171.162 35.1425L139.95 22.7824C139.198 22.4829 138.603 21.9121 138.283 21.1651C137.96 20.4217 137.949 19.5972 138.245 18.8432C138.544 18.0891 139.117 17.4972 139.859 17.1766C140.6 16.8524 141.423 16.8383 142.176 17.1378L173.388 29.498C174.938 30.1111 175.705 31.8799 175.09 33.4337Z" fill="url(#paint0_linear_70_2713)"/>
<path d="M158.983 89.2238C157.032 86.6024 154.131 84.8301 150.812 84.2311L91.4396 74.0801L90.3777 73.8969L79.6888 72.0682L78.627 71.8885L53.6804 67.6216C46.0189 66.2369 41.6765 69.0275 39.1625 76.9587L15.9811 131.815C15.967 131.854 15.9564 131.889 15.9494 131.928C15.3868 135.053 16.1533 138.224 18.1153 140.86C20.0667 143.481 22.9675 145.253 26.2832 145.852L122.961 163.336C123.541 163.441 124.111 163.491 124.663 163.491C131.917 163.491 136.867 155.101 137.444 154.076C140.334 148.935 144.592 139.274 148.699 129.416C148.832 129.091 148.97 128.767 149.103 128.44C155.292 113.535 161.03 98.5045 161.125 98.2508C161.139 98.2191 161.146 98.1874 161.153 98.1557C161.715 95.0304 160.945 91.8593 158.983 89.2238ZM26.4695 144.813C23.4176 144.263 20.7524 142.632 18.9592 140.225C17.1871 137.847 16.4839 134.99 16.9761 132.174L40.1435 77.3463C40.1435 77.3463 40.1576 77.3181 40.1611 77.3005C42.5098 69.8766 46.374 67.375 53.4976 68.661L78.2332 72.8892L79.295 73.0724L89.9804 74.901L91.0458 75.0807L104.041 77.304L98.3381 89.6713L97.8775 90.6719L94.0696 98.9273L93.6055 99.935H93.6019L81.6051 125.952L81.1586 126.917L77.4069 135.05L76.9604 136.018L69.3305 152.564L26.4695 144.813ZM160.123 97.9196C159.757 98.878 154.149 113.539 148.126 128.052C147.989 128.376 147.855 128.7 147.718 129.024C143.629 138.844 139.399 148.453 136.526 153.558C135.943 154.594 130.609 163.649 123.151 162.296L70.4029 152.758L77.9835 136.318L78.4336 135.345L82.1993 127.178L82.6599 126.181L94.6849 100.115L95.1314 99.1422L98.9604 90.8446L99.4175 89.8545L105.121 77.4872L150.629 85.2705C153.681 85.8237 156.346 87.4515 158.14 89.858C159.912 92.2398 160.615 95.1009 160.123 97.9196Z" fill="#685E7C"/>
<path d="M113.784 114.451H113.781C113.7 114.793 113.608 115.135 113.51 115.48C113.492 115.537 113.478 115.593 113.461 115.649C111.65 121.78 107.628 127.294 102.132 131.181C96.784 134.958 90.6484 136.815 84.861 136.413C82.6037 136.254 80.4483 135.892 78.4336 135.345L82.1993 127.178C82.6353 127.256 83.0783 127.291 83.5178 127.291C86.0107 127.291 88.4368 126.107 89.562 124.134L91.5767 120.603L96.0702 122.185C99.3015 123.323 103.166 122.09 104.681 119.434L105.008 118.859C105.704 117.64 105.827 116.266 105.353 114.998C105.082 114.265 104.621 113.602 104.017 113.046C103.412 112.489 102.663 112.045 101.808 111.742L97.4978 110.223L98.0006 109.339L98.5315 108.412L99.5476 106.629C100.237 105.417 100.36 104.054 99.8922 102.792C99.3507 101.337 98.0674 100.16 96.3691 99.5615L95.585 99.2831C95.4338 99.2302 95.2826 99.1844 95.1314 99.1422L98.9605 90.8445C103.83 91.7359 108.039 94.2481 110.859 98.0323C114.241 102.574 115.264 108.363 113.784 114.451Z" fill="url(#paint1_linear_70_2713)"/>
<path d="M104.04 77.304L98.3374 89.6712C97.2193 89.5056 96.0731 89.4211 94.9022 89.4211C91.4565 89.4211 88.0705 89.8685 84.8744 90.7212C84.4419 90.834 84.0164 90.9573 83.598 91.0876C80.3914 92.0672 77.3992 93.466 74.7621 95.2453C74.3402 95.5307 73.9288 95.8231 73.528 96.1262C73.2432 96.3411 72.9619 96.5595 72.6841 96.7886C67.3713 101.101 63.9045 107.08 62.6106 114.226C61.612 119.744 62.709 124.758 65.7891 128.725C68.3418 132.019 72.2376 134.532 76.9597 136.018L69.3298 152.564L26.4688 144.813C23.4169 144.263 20.7517 142.632 18.9585 140.225C17.1864 137.847 16.4832 134.99 16.9754 132.174L40.1428 77.3463C40.1428 77.3463 40.1569 77.3181 40.1604 77.3005C42.5092 69.8766 46.3733 67.375 53.4969 68.661L78.2325 72.8891L79.2943 73.0723L89.9797 74.901L91.0451 75.0807L104.04 77.304Z" fill="url(#paint2_linear_70_2713)"/>
<path d="M93.6014 99.935L81.6045 125.952C81.5237 125.927 81.4428 125.899 81.3619 125.871L80.5743 125.596C79.1749 125.103 78.1236 124.152 77.6912 122.992C77.3325 122.03 77.431 120.984 77.9654 120.05L80.1981 116.132C80.2755 115.995 80.2895 115.833 80.2333 115.685C80.1805 115.54 80.0645 115.424 79.9168 115.371L75.0084 113.641C73.5949 113.144 72.5331 112.186 72.1006 111.016C71.7384 110.047 71.8369 108.99 72.3749 108.049L72.7019 107.475C73.6477 105.816 75.7081 104.822 77.8424 104.822C78.5807 104.822 79.3296 104.942 80.0434 105.195L84.9519 106.925C85.1909 107.01 85.4582 106.908 85.5847 106.686L86.6396 104.84L86.7556 104.635L87.167 103.913L87.2795 103.716L87.9511 102.542C88.9707 100.752 91.2948 99.7483 93.6014 99.935Z" fill="url(#paint3_linear_70_2713)"/>
<path d="M213.405 89.8334C213.32 90.0378 213.123 90.1611 212.916 90.1611C212.849 90.1611 212.782 90.147 212.716 90.1188L189.886 80.6549L190.273 79.6719L213.12 89.1429C213.387 89.2556 213.517 89.5621 213.405 89.8334Z" fill="#685E7C"/>
<path d="M207.164 98.279C207.08 98.4834 206.883 98.6067 206.679 98.6067C206.608 98.6067 206.542 98.5926 206.475 98.5644L186.148 90.1364L186.535 89.1533L206.879 97.5884C207.146 97.7012 207.277 98.0112 207.164 98.279Z" fill="#685E7C"/>
<path d="M201.197 105.502C201.113 105.703 200.916 105.826 200.708 105.826C200.642 105.826 200.575 105.816 200.508 105.788L182.864 98.4694L183.251 97.4863L200.912 104.812C201.179 104.921 201.306 105.231 201.197 105.502Z" fill="#685E7C"/>
<path d="M97.1982 41.6786C97.1455 41.6786 97.0928 41.6751 97.0365 41.6645L72.2165 37.0876C71.7383 36.9995 71.4219 36.5414 71.5098 36.0623C71.5977 35.5831 72.0548 35.266 72.533 35.354L97.3529 39.931C97.8311 40.0191 98.1476 40.4771 98.0597 40.9563C97.9823 41.3826 97.6131 41.6786 97.1947 41.6786H97.1982Z" fill="#685E7C"/>
<path d="M81.6713 52.1432C81.6713 52.1432 81.6642 52.1573 81.6607 52.1644C81.506 52.4533 81.3583 52.7422 81.2142 53.0382H81.2106L66.6119 50.1736C66.3517 50.1208 66.1794 49.8671 66.2322 49.6064C66.2814 49.3456 66.5345 49.173 66.7982 49.2258L81.6713 52.1432Z" fill="#685E7C"/>
<path d="M81.2155 53.0381C81.2155 53.0381 81.2155 53.0426 81.2109 53.0381H81.2155Z" fill="#685E7C"/>
<path d="M132.89 61.801C132.844 62.0582 132.623 62.2379 132.369 62.2379C132.341 62.2379 132.31 62.2344 132.278 62.2309L89.5225 54.6344C89.7299 54.2926 89.9409 53.972 90.1554 53.6689L132.461 61.1879C132.749 61.2408 132.939 61.5156 132.89 61.801Z" fill="#685E7C"/>
<path d="M79.2136 58.1015C79.2136 58.1015 79.2136 58.105 79.21 58.1085C79.1327 58.3692 79.0589 58.63 78.9885 58.8872C78.9745 58.9365 78.9639 58.9858 78.9499 59.0352L64.773 56.2552C64.5128 56.2023 64.3441 55.9486 64.3933 55.6879C64.446 55.4272 64.6992 55.2545 64.9594 55.3074L79.2136 58.1015Z" fill="#685E7C"/>
<path d="M130.706 67.7028C130.661 67.96 130.439 68.1397 130.186 68.1397C130.158 68.1397 130.126 68.1362 130.095 68.1327L86.9277 60.4622C87.0297 60.1274 87.1387 59.7927 87.2582 59.4509L130.277 67.0932C130.566 67.1426 130.756 67.4174 130.706 67.7028Z" fill="#685E7C"/>
</g>
<defs>
<linearGradient id="paint0_linear_70_2713" x1="150.317" y1="104.318" x2="121.696" y2="0.47227" gradientUnits="userSpaceOnUse">
<stop stop-color="#FF0F7B"/>
<stop offset="1" stop-color="#F89B29"/>
</linearGradient>
<linearGradient id="paint1_linear_70_2713" x1="96.6919" y1="138.307" x2="79.6951" y2="93.3805" gradientUnits="userSpaceOnUse">
<stop stop-color="#FF0F7B"/>
<stop offset="1" stop-color="#F89B29"/>
</linearGradient>
<linearGradient id="paint2_linear_70_2713" x1="61.0439" y1="155.961" x2="35.8015" y2="68.4287" gradientUnits="userSpaceOnUse">
<stop stop-color="#FF0F7B"/>
<stop offset="1" stop-color="#F89B29"/>
</linearGradient>
<linearGradient id="paint3_linear_70_2713" x1="82.8961" y1="127.002" x2="73.5929" y2="101.021" gradientUnits="userSpaceOnUse">
<stop stop-color="#FF0F7B"/>
<stop offset="1" stop-color="#F89B29"/>
</linearGradient>
<clipPath id="clip0_70_2713">
<rect width="250" height="208.333" fill="white"/>
</clipPath>
</defs>
</svg>
