<svg width="20" height="20" viewBox="0 0 20 20" fill="none" xmlns="http://www.w3.org/2000/svg">
<path d="M10 12.1L2.65 19.45C2.375 19.725 2.025 19.8625 1.6 19.8625C1.175 19.8625 0.825 19.725 0.55 19.45C0.275 19.175 0.137501 18.825 0.137501 18.4C0.137501 17.975 0.275 17.625 0.55 17.35L7.9 10L0.55 2.65C0.275 2.375 0.137501 2.025 0.137501 1.6C0.137501 1.175 0.275 0.825 0.55 0.55C0.825 0.275 1.175 0.137501 1.6 0.137501C2.025 0.137501 2.375 0.275 2.65 0.55L10 7.9L17.35 0.55C17.625 0.275 17.975 0.137501 18.4 0.137501C18.825 0.137501 19.175 0.275 19.45 0.55C19.725 0.825 19.8625 1.175 19.8625 1.6C19.8625 2.025 19.725 2.375 19.45 2.65L12.1 10L19.45 17.35C19.725 17.625 19.8625 17.975 19.8625 18.4C19.8625 18.825 19.725 19.175 19.45 19.45C19.175 19.725 18.825 19.8625 18.4 19.8625C17.975 19.8625 17.625 19.725 17.35 19.45L10 12.1Z" fill="white"/>
</svg>
