<svg width="48" height="48" viewBox="0 0 48 48" fill="none" xmlns="http://www.w3.org/2000/svg">
<circle cx="24" cy="24" r="23.4667" fill="url(#paint0_linear_145_5657)" stroke="#1E0F3C" stroke-width="1.06667"/>
<g clip-path="url(#clip0_145_5657)">
<path d="M27.742 27.5428C28.1609 27.5428 28.5005 27.2032 28.5005 26.7842C28.5005 26.3653 28.1609 26.0256 27.742 26.0256C27.323 26.0256 26.9834 26.3653 26.9834 26.7842C26.9834 27.2032 27.323 27.5428 27.742 27.5428Z" fill="white"/>
<path d="M31.3545 26.0255C30.9326 26.0255 30.5912 26.3669 30.5912 26.7841C30.5912 27.2013 30.9326 27.5427 31.3545 27.5427C31.7765 27.5427 32.1131 27.2013 32.1131 26.7841C32.1131 26.3669 31.7717 26.0255 31.3545 26.0255ZM31.3545 26.0255C30.9326 26.0255 30.5912 26.3669 30.5912 26.7841C30.5912 27.2013 30.9326 27.5427 31.3545 27.5427C31.7765 27.5427 32.1131 27.2013 32.1131 26.7841C32.1131 26.3669 31.7717 26.0255 31.3545 26.0255ZM37.7976 30.8235C38.964 29.7046 39.585 28.3581 39.585 26.9358C39.585 24.0959 37.0865 21.6969 33.6777 20.9336C33.7772 20.7961 33.872 20.6539 33.9574 20.5117C33.7962 20.469 33.635 20.4358 33.469 20.4074C33.2984 20.3694 33.1277 20.341 32.9523 20.3173C32.4355 20.2414 31.8998 20.2035 31.3545 20.2035C28.1496 20.2035 25.3523 21.5405 23.8399 23.5365C23.7356 23.6692 23.6361 23.8067 23.5507 23.9489C23.4654 24.0864 23.38 24.2287 23.3042 24.3709C23.4606 24.4183 23.6218 24.4562 23.783 24.4894C23.3563 25.2385 23.124 26.0682 23.124 26.9358C23.124 30.3873 26.8173 33.1988 31.3593 33.1988C32.5066 33.1988 33.6208 33.0186 34.678 32.663C34.7254 32.6488 34.7776 32.6393 34.825 32.6393C34.8914 32.6393 34.9577 32.6536 35.0194 32.6773L38.5894 34.2418L37.6791 31.3071C37.6222 31.1317 37.6744 30.9468 37.8024 30.8235H37.7976ZM27.7418 28.4909C26.7984 28.4909 26.035 27.7228 26.035 26.7841C26.035 25.8454 26.7984 25.0773 27.7418 25.0773C28.6853 25.0773 29.4486 25.8406 29.4486 26.7841C29.4486 27.7276 28.6806 28.4909 27.7418 28.4909ZM31.3545 28.4909C30.4111 28.4909 29.643 27.7228 29.643 26.7841C29.643 25.8454 30.4111 25.0773 31.3545 25.0773C32.298 25.0773 33.0613 25.8406 33.0613 26.7841C33.0613 27.7276 32.2933 28.4909 31.3545 28.4909ZM34.9672 28.4909C34.0238 28.4909 33.2557 27.7228 33.2557 26.7841C33.2557 25.8454 34.0238 25.0773 34.9672 25.0773C35.9107 25.0773 36.674 25.8406 36.674 26.7841C36.674 27.7276 35.906 28.4909 34.9672 28.4909ZM34.9672 26.0255C34.5453 26.0255 34.2039 26.3669 34.2039 26.7841C34.2039 27.2013 34.5453 27.5427 34.9672 27.5427C35.3892 27.5427 35.7258 27.2013 35.7258 26.7841C35.7258 26.3669 35.3844 26.0255 34.9672 26.0255ZM31.3545 26.0255C30.9326 26.0255 30.5912 26.3669 30.5912 26.7841C30.5912 27.2013 30.9326 27.5427 31.3545 27.5427C31.7765 27.5427 32.1131 27.2013 32.1131 26.7841C32.1131 26.3669 31.7717 26.0255 31.3545 26.0255Z" fill="white"/>
<path d="M33.7301 19.9759C33.5689 19.938 33.4077 19.9095 33.2418 19.8858C32.6349 19.7815 31.9996 19.7294 31.3548 19.7294C29.4868 19.7294 27.7516 20.1655 26.3008 20.9241C25.9737 21.0948 25.656 21.2797 25.3621 21.4836H25.3574C24.5561 22.0288 23.8781 22.6736 23.3566 23.4037C23.2571 23.5365 23.167 23.6739 23.0816 23.8114C22.9963 23.9489 22.9157 24.0912 22.8398 24.2334C22.9916 24.2855 23.1433 24.333 23.2997 24.3709C23.4562 24.4183 23.6174 24.4562 23.7786 24.4894C23.8592 24.3424 23.9445 24.2002 24.0441 24.0627C24.1389 23.9205 24.2432 23.7782 24.357 23.6408C25.8078 21.8629 28.4011 20.6776 31.3548 20.6776C31.7863 20.6776 32.2129 20.7013 32.6254 20.7534C32.8056 20.7724 32.9857 20.8009 33.1659 20.834C33.3366 20.8577 33.5073 20.8909 33.6779 20.9336C33.7775 20.7961 33.8723 20.6539 33.9577 20.5116C34.0525 20.3742 34.1331 20.2319 34.2089 20.085C34.0525 20.047 33.8913 20.0091 33.7301 19.9759Z" fill="#1F1E1F"/>
<path d="M39.7982 34.9531C39.8551 35.1333 39.803 35.3229 39.6655 35.4462C39.5754 35.5268 39.4616 35.5694 39.3478 35.5694C39.2814 35.5694 39.2198 35.5552 39.1582 35.5268L34.7964 33.6209C33.6965 33.967 32.5396 34.1471 31.3544 34.1471C26.2909 34.1471 22.1709 30.9137 22.1709 26.9359C22.1709 25.9782 22.408 25.068 22.8394 24.2335C22.9911 24.2857 23.1428 24.3331 23.2993 24.371C23.4557 24.4184 23.6169 24.4564 23.7781 24.4895C23.3514 25.2386 23.1191 26.0683 23.1191 26.9359C23.1191 30.3874 26.8124 33.1989 31.3544 33.1989C32.5017 33.1989 33.6159 33.0187 34.6731 32.6632C34.7205 32.6489 34.7727 32.6395 34.8201 32.6395C34.8865 32.6395 34.9528 32.6537 35.0145 32.6774L38.5845 34.2419L37.6742 31.3072C37.6173 31.1318 37.6695 30.9469 37.7975 30.8236C38.9638 29.7047 39.5849 28.3583 39.5849 26.9359C39.5849 24.096 37.0863 21.697 33.6775 20.9337C33.7771 20.7962 33.8719 20.654 33.9572 20.5118C34.052 20.3743 34.1326 20.2321 34.2085 20.0851C37.8781 21.0333 40.5331 23.7452 40.5331 26.9359C40.5331 28.51 39.8693 30.0508 38.6651 31.2977L39.7982 34.9531Z" fill="black"/>
<path d="M27.742 27.5428C28.1609 27.5428 28.5005 27.2032 28.5005 26.7842C28.5005 26.3653 28.1609 26.0256 27.742 26.0256C27.323 26.0256 26.9834 26.3653 26.9834 26.7842C26.9834 27.2032 27.323 27.5428 27.742 27.5428Z" fill="white"/>
<path d="M27.7419 25.0774C26.7985 25.0774 26.0352 25.8407 26.0352 26.7842C26.0352 27.7277 26.7985 28.491 27.7419 28.491C28.6854 28.491 29.4487 27.7229 29.4487 26.7842C29.4487 25.8454 28.6807 25.0774 27.7419 25.0774ZM27.7419 27.5428C27.32 27.5428 26.9834 27.2014 26.9834 26.7842C26.9834 26.367 27.32 26.0256 27.7419 26.0256C28.1639 26.0256 28.5005 26.367 28.5005 26.7842C28.5005 27.2014 28.1592 27.5428 27.7419 27.5428Z" fill="black"/>
<path d="M32.1137 26.7842C32.1137 27.2014 31.7723 27.5428 31.3551 27.5428C30.9379 27.5428 30.5918 27.2014 30.5918 26.7842C30.5918 26.367 30.9332 26.0256 31.3551 26.0256C31.7771 26.0256 32.1137 26.367 32.1137 26.7842Z" fill="white"/>
<path d="M31.3551 25.0774C30.4116 25.0774 29.6436 25.8407 29.6436 26.7842C29.6436 27.7277 30.4116 28.491 31.3551 28.491C32.2986 28.491 33.0619 27.7229 33.0619 26.7842C33.0619 25.8454 32.2938 25.0774 31.3551 25.0774ZM31.3551 27.5428C30.9331 27.5428 30.5918 27.2014 30.5918 26.7842C30.5918 26.367 30.9331 26.0256 31.3551 26.0256C31.777 26.0256 32.1137 26.367 32.1137 26.7842C32.1137 27.2014 31.7723 27.5428 31.3551 27.5428Z" fill="black"/>
<path d="M35.726 26.7842C35.726 27.2014 35.3846 27.5428 34.9674 27.5428C34.5502 27.5428 34.2041 27.2014 34.2041 26.7842C34.2041 26.367 34.5455 26.0256 34.9674 26.0256C35.3894 26.0256 35.726 26.367 35.726 26.7842Z" fill="white"/>
<path d="M34.9674 25.0774C34.0239 25.0774 33.2559 25.8407 33.2559 26.7842C33.2559 27.7277 34.0239 28.491 34.9674 28.491C35.9109 28.491 36.6742 27.7229 36.6742 26.7842C36.6742 25.8454 35.9061 25.0774 34.9674 25.0774ZM34.9674 27.5428C34.5454 27.5428 34.2041 27.2014 34.2041 26.7842C34.2041 26.367 34.5454 26.0256 34.9674 26.0256C35.3893 26.0256 35.726 26.367 35.726 26.7842C35.726 27.2014 35.3846 27.5428 34.9674 27.5428Z" fill="black"/>
<path d="M25.3766 36.5556L21.9393 30.6008C21.726 30.231 21.2092 30.0935 20.8442 30.3021C20.8062 30.3258 20.7778 30.3495 20.7493 30.3685C20.5976 30.4443 20.2041 30.6577 19.3033 31.1934C18.521 31.658 18.0801 32.1227 17.8288 32.4972C17.2409 31.7054 16.2264 30.0318 15.3967 28.5289C14.5148 27.0687 13.5714 25.3571 13.1826 24.4516C13.6093 24.4232 14.2446 24.2857 15.0506 23.8353C15.757 23.4418 16.2501 23.1573 16.5345 22.9819L16.5914 22.9439C16.7763 22.8396 16.9091 22.669 16.966 22.4603C17.0229 22.2565 16.9944 22.0384 16.8901 21.8487L13.4481 15.894C13.3059 15.6474 13.0404 15.491 12.7559 15.491C12.6137 15.491 12.4714 15.5289 12.3908 15.581C12.3055 15.619 10.2526 16.5672 8.9251 17.7904C8.74968 17.9516 8.59322 18.1128 8.45099 18.2787C7.27046 19.6252 6.75369 21.46 6.986 23.4465C7.2752 25.8787 10.4517 31.1128 10.575 31.3119C10.6983 31.5395 13.6425 36.9064 15.6053 38.3714C16.8569 39.3101 18.2603 39.8032 19.6542 39.8032C20.2657 39.8032 20.8773 39.7084 21.4747 39.5235C22.366 39.2438 23.2906 38.7602 23.978 38.3524C24.6228 37.9779 25.0637 37.6697 25.0874 37.6508C25.4667 37.4279 25.5995 36.9348 25.3766 36.5556ZM12.6943 16.4866L15.994 22.1996C15.8234 22.3039 15.5579 22.4603 15.207 22.6595L11.8124 16.9465C12.2059 16.7284 12.5236 16.5672 12.6943 16.4866ZM21.1903 38.6179C19.5167 39.1394 17.7293 38.7744 16.1742 37.6128C14.3726 36.2711 11.4379 30.9137 11.3952 30.8378C11.362 30.7857 8.19497 25.5658 7.92947 23.3327C7.78724 22.1237 7.88206 20.3648 9.16689 18.8998C9.28542 18.7623 9.41817 18.6248 9.56988 18.4873C9.99184 18.0986 10.5039 17.7335 10.9969 17.4301L14.3773 23.1194C13.7515 23.437 13.3011 23.5081 13.0214 23.5081C12.8317 23.5081 12.7227 23.4702 12.7227 23.4702C12.5757 23.4038 12.4003 23.418 12.2628 23.5081C12.1253 23.5982 12.0447 23.7499 12.0495 23.9159C12.0732 24.7977 13.998 28.0453 14.5765 29.003C15.1264 30.0034 16.9802 33.289 17.7293 33.7536C17.8668 33.8389 18.0374 33.8389 18.1844 33.7678C18.3314 33.6967 18.431 33.5497 18.4499 33.3885C18.4499 33.3838 18.5447 32.7722 19.6921 32.0705L23.0819 37.7693C22.5035 38.0869 21.8303 38.4141 21.1903 38.6179ZM23.8974 37.2904L20.5075 31.5869C20.9295 31.3451 21.1286 31.2408 21.195 31.2076L24.49 36.9111C24.381 36.9823 24.1724 37.1245 23.8974 37.2904Z" fill="black"/>
<path d="M24.4893 36.911C24.3803 36.9821 24.1717 37.1244 23.8967 37.2903L20.5068 31.5868C20.9288 31.345 21.1279 31.2407 21.1943 31.2075L24.4893 36.911Z" fill="white"/>
<path d="M15.9932 22.1996C15.8225 22.3039 15.557 22.4603 15.2061 22.6595L11.8115 16.9465C12.205 16.7284 12.5227 16.5672 12.6934 16.4866L15.9932 22.1996Z" fill="white"/>
<path d="M23.0818 37.7693C22.5034 38.0869 21.8301 38.4141 21.1901 38.6179C19.5165 39.1394 17.7291 38.7744 16.174 37.6128C14.3724 36.2711 11.4377 30.9137 11.395 30.8378C11.3618 30.7857 8.1948 25.5657 7.9293 23.3327C7.78707 22.1237 7.88189 20.3648 9.16672 18.8998C9.28525 18.7623 9.418 18.6248 9.56971 18.4873C9.99167 18.0985 10.5037 17.7335 10.9968 17.4301L14.3772 23.1193C13.7513 23.437 13.3009 23.5081 13.0212 23.5081C12.8316 23.5081 12.7225 23.4702 12.7225 23.4702C12.5756 23.4038 12.4001 23.418 12.2626 23.5081C12.1252 23.5982 12.0446 23.7499 12.0493 23.9158C12.073 24.7977 13.9979 28.0453 14.5763 29.003C15.1263 30.0034 16.98 33.2889 17.7291 33.7536C17.8666 33.8389 18.0373 33.8389 18.1842 33.7678C18.3312 33.6967 18.4308 33.5497 18.4497 33.3885C18.4497 33.3838 18.5446 32.7722 19.6919 32.0705L23.0818 37.7693Z" fill="white"/>
<path d="M33.2423 19.8859C33.4082 19.9096 33.5694 19.9381 33.7306 19.976C33.65 20.123 33.5647 20.2652 33.4698 20.4074C33.375 20.5544 33.2707 20.6966 33.1664 20.8341C31.5876 22.9012 28.9469 24.2572 25.96 24.2572C25.301 24.2572 24.6609 24.1908 24.0446 24.0628C23.8787 24.0296 23.7127 23.9917 23.5515 23.949C23.3951 23.9111 23.2386 23.8637 23.0822 23.8115C23.1675 23.674 23.2576 23.5365 23.3571 23.4038C23.1201 23.3327 22.883 23.2521 22.6507 23.162C22.5227 23.1098 22.3852 23.1193 22.2619 23.1809L18.6682 25.0157L19.6212 21.441C19.6591 21.2845 19.6212 21.1186 19.5169 21.0001C18.3269 19.6726 17.6963 18.0701 17.6963 16.368C17.6963 12.2765 21.4038 8.94824 25.96 8.94824C30.5162 8.94824 34.2284 12.2765 34.2284 16.368C34.2284 17.6386 33.8681 18.8381 33.2423 19.8859Z" fill="#E9E7EC"/>
<path d="M33.7301 19.9759C33.5689 19.938 33.4077 19.9096 33.2418 19.8859C33.1517 20.0328 33.0569 20.1751 32.9526 20.3173C32.853 20.469 32.7392 20.6112 32.6254 20.7535C31.1178 22.5883 28.6903 23.783 25.9595 23.783C25.419 23.783 24.8832 23.7356 24.357 23.6408C24.1816 23.6124 24.0109 23.5744 23.8402 23.5365C23.679 23.4986 23.5178 23.4512 23.3566 23.4037C23.2571 23.5365 23.167 23.674 23.0816 23.8115C22.9963 23.949 22.9157 24.0912 22.8398 24.2334C22.9916 24.2856 23.1433 24.333 23.2997 24.3709C23.4562 24.4183 23.6174 24.4563 23.7786 24.4894C24.4897 24.6506 25.2199 24.7312 25.9595 24.7312C29.1881 24.7312 32.0328 23.2188 33.6779 20.9336C33.7775 20.7962 33.8723 20.6539 33.9577 20.5117C34.0525 20.3742 34.1331 20.232 34.2089 20.085C34.0525 20.0471 33.8913 20.0091 33.7301 19.9759Z" fill="#1F1E1F"/>
<path d="M35.1756 16.368C35.1756 17.7002 34.8295 18.9661 34.2084 20.085C34.052 20.0471 33.8908 20.0091 33.7296 19.976C33.5684 19.938 33.4072 19.9096 33.2413 19.8859C33.8671 18.8381 34.2274 17.6386 34.2274 16.368C34.2274 12.2764 30.5199 8.94822 25.959 8.94822C21.3981 8.94822 17.6953 12.2764 17.6953 16.368C17.6953 18.07 18.3258 19.6725 19.5159 21C19.6202 21.1186 19.6581 21.2845 19.6202 21.4409L18.6672 25.0157L22.2609 23.1809C22.3842 23.1193 22.5217 23.1098 22.6497 23.162C22.882 23.252 23.1191 23.3326 23.3561 23.4038C23.2566 23.5365 23.1665 23.674 23.0811 23.8115C22.9958 23.949 22.9152 24.0912 22.8394 24.2334C22.7256 24.2003 22.6118 24.1623 22.5027 24.1197L18.1504 26.3432C18.0793 26.3811 18.0082 26.3954 17.9323 26.3954C17.828 26.3954 17.7237 26.3622 17.6384 26.2911C17.4914 26.1725 17.425 25.9829 17.4772 25.798L18.6388 21.4409C17.4156 19.9854 16.7471 18.1981 16.7471 16.368C16.7471 11.7549 20.8813 8 25.959 8C31.0367 8 35.1756 11.7549 35.1756 16.368Z" fill="black"/>
<path d="M25.0257 18.9329C25.0162 18.8855 25.0114 18.8381 25.0114 18.7859V18.6342C25.0114 18.2549 25.0683 17.9183 25.1821 17.6291C25.2959 17.3399 25.4334 17.0744 25.6041 16.8326C25.77 16.5908 25.9549 16.368 26.1493 16.1594C26.3437 15.9507 26.5238 15.7421 26.6945 15.5288C26.8604 15.3154 27.0027 15.0879 27.1165 14.8508C27.2303 14.609 27.2871 14.3388 27.2871 14.0306C27.2871 13.6134 27.1686 13.272 26.9268 13.0113C26.685 12.7505 26.2868 12.6178 25.7226 12.6178C25.3955 12.6178 25.0636 12.6747 24.7317 12.7884C24.3951 12.9022 24.1059 13.035 23.8641 13.1914L23.499 12.3475C23.8451 12.1389 24.2054 11.973 24.5847 11.8545C24.964 11.7359 25.4381 11.6696 25.9976 11.6696C26.3958 11.6696 26.7467 11.7264 27.0501 11.8402C27.3535 11.954 27.6048 12.1105 27.8087 12.3096C28.0125 12.5087 28.1642 12.7458 28.2638 13.016C28.3634 13.2863 28.4155 13.5802 28.4155 13.8836C28.4155 14.2914 28.3539 14.647 28.2306 14.9504C28.1073 15.2538 27.9556 15.5288 27.7707 15.7801C27.5858 16.0313 27.3867 16.2637 27.1734 16.477C26.96 16.6951 26.7609 16.9227 26.576 17.1645C26.3911 17.4063 26.2346 17.667 26.1161 17.9467C25.9928 18.2265 25.9312 18.5583 25.9312 18.9376H25.0351L25.0257 18.9329ZM24.7554 20.7108C24.7554 20.4642 24.8265 20.2746 24.964 20.1324C25.1062 19.9949 25.2912 19.9238 25.5282 19.9238C25.7653 19.9238 25.9691 19.9949 26.1114 20.1324C26.2536 20.2746 26.3294 20.4642 26.3294 20.7108C26.3294 20.9573 26.2583 21.1375 26.1114 21.2797C25.9644 21.4219 25.77 21.4978 25.5282 21.4978C25.2864 21.4978 25.1062 21.4267 24.964 21.2797C24.8218 21.1327 24.7554 20.9431 24.7554 20.7108Z" fill="#1F1E1F"/>
</g>
<defs>
<linearGradient id="paint0_linear_145_5657" x1="24.3371" y1="49.9358" x2="9.52262" y2="0.326671" gradientUnits="userSpaceOnUse">
<stop stop-color="#FF0F7B"/>
<stop offset="1" stop-color="#F89B29"/>
</linearGradient>
<clipPath id="clip0_145_5657">
<rect width="33.6" height="31.8031" fill="white" transform="translate(6.93359 8)"/>
</clipPath>
</defs>
</svg>
