<svg width="64" height="64" viewBox="0 0 64 64" fill="none" xmlns="http://www.w3.org/2000/svg">
<g clip-path="url(#clip0_6_2)">
<path d="M1.36323 31.617C1.36174 36.9942 2.76677 42.2447 5.43839 46.8726L1.10773 62.6845L17.2893 58.4417C21.7649 60.8782 26.7795 62.1548 31.8754 62.1552H31.8887C48.7111 62.1552 62.4048 48.4664 62.412 31.6411C62.4153 23.488 59.243 15.8214 53.4796 10.0535C47.7171 4.28601 40.0532 1.10809 31.8875 1.10437C15.0632 1.10437 1.37042 14.7924 1.36348 31.617" fill="url(#paint0_linear_6_2)"/>
<path d="M0.273483 31.6071C0.271747 37.1778 1.72713 42.6161 4.49401 47.4096L0.00805664 63.7884L16.7699 59.3935C21.3883 61.9116 26.5882 63.2392 31.8793 63.2412H31.893C49.3188 63.2412 63.5045 49.06 63.5119 31.6324C63.5149 23.1864 60.2286 15.2442 54.2592 9.26958C48.2891 3.29575 40.3511 0.00347287 31.893 0C14.4641 0 0.280429 14.1792 0.273483 31.6071ZM10.2555 46.5841L9.62964 45.5906C6.99869 41.4073 5.61004 36.573 5.61203 31.6091C5.61773 17.1235 17.4066 5.33829 31.9029 5.33829C38.923 5.34127 45.5205 8.07789 50.4827 13.0431C55.4447 18.0088 58.1751 24.6097 58.1734 31.6304C58.1669 46.116 46.3778 57.9026 31.893 57.9026H31.8825C27.1661 57.9002 22.5405 56.6335 18.5065 54.24L17.5465 53.6707L7.59975 56.2786L10.2555 46.5838V46.5841Z" fill="url(#paint1_linear_6_2)"/>
<path d="M23.9902 18.3933C23.3983 17.0778 22.7754 17.0513 22.2126 17.0282C21.7517 17.0084 21.2248 17.0099 20.6984 17.0099C20.1715 17.0099 19.3155 17.2081 18.5919 17.9981C17.8675 18.789 15.8265 20.7 15.8265 24.5869C15.8265 28.474 18.6576 32.2304 19.0523 32.7581C19.4474 33.2847 24.5178 41.5164 32.5481 44.6832C39.2219 47.3148 40.5801 46.7914 42.0285 46.6595C43.4772 46.528 46.703 44.7489 47.3611 42.9041C48.0197 41.0595 48.0197 39.4783 47.8223 39.1479C47.6248 38.8187 47.0979 38.621 46.3078 38.2261C45.5175 37.8309 41.6334 35.9196 40.9093 35.6559C40.1849 35.3925 39.6583 35.261 39.1314 36.0521C38.6045 36.8419 37.0916 38.621 36.6304 39.1479C36.1698 39.676 35.7086 39.7418 34.9188 39.3466C34.1282 38.9502 31.5839 38.117 28.5652 35.4257C26.2166 33.3316 24.6309 30.7455 24.17 29.9545C23.7091 29.1646 24.1207 28.7365 24.5168 28.3428C24.8718 27.9888 25.3072 27.4203 25.7026 26.9591C26.0965 26.4977 26.228 26.1685 26.4914 25.6417C26.7551 25.1143 26.6231 24.6529 26.4259 24.2577C26.228 23.8626 24.6927 19.9553 23.9902 18.3933Z" fill="white"/>
</g>
<defs>
<linearGradient id="paint0_linear_6_2" x1="3066.32" y1="6159.12" x2="3066.32" y2="1.10437" gradientUnits="userSpaceOnUse">
<stop stop-color="#1FAF38"/>
<stop offset="1" stop-color="#60D669"/>
</linearGradient>
<linearGradient id="paint1_linear_6_2" x1="3175.2" y1="6378.84" x2="3175.2" y2="0" gradientUnits="userSpaceOnUse">
<stop stop-color="#F9F9F9"/>
<stop offset="1" stop-color="white"/>
</linearGradient>
<clipPath id="clip0_6_2">
<rect width="63.52" height="64" fill="white"/>
</clipPath>
</defs>
</svg>
